<svg xmlns="http://www.w3.org/2000/svg" xmlns:xlink="http://www.w3.org/1999/xlink" width="800" zoomAndPan="magnify" viewBox="0 0 600 599.999999" height="800" preserveAspectRatio="xMidYMid meet" version="1.0"><defs><g/><clipPath id="id1"><path d="M 354.089844 597 L 379 597 L 379 600 L 354.089844 600 Z M 354.089844 597 " clip-rule="nonzero"/></clipPath><clipPath id="id2"><path d="M 99 587 L 123.839844 587 L 123.839844 600 L 99 600 Z M 99 587 " clip-rule="nonzero"/></clipPath><clipPath id="id3"><path d="M 319 587 L 343.933594 587 L 343.933594 600 L 319 600 Z M 319 587 " clip-rule="nonzero"/></clipPath><clipPath id="id4"><path d="M 294.835938 587 L 320 587 L 320 600 L 294.835938 600 Z M 294.835938 587 " clip-rule="nonzero"/></clipPath><clipPath id="id5"><path d="M 245.738281 587 L 271 587 L 271 600 L 245.738281 600 Z M 245.738281 587 " clip-rule="nonzero"/></clipPath><clipPath id="id6"><path d="M 196.640625 587 L 222 587 L 222 600 L 196.640625 600 Z M 196.640625 587 " clip-rule="nonzero"/></clipPath><clipPath id="id7"><path d="M 49.5 146 L 75 146 L 75 172 L 49.5 172 Z M 49.5 146 " clip-rule="nonzero"/></clipPath></defs><path fill="rgb(92.939758%, 10.978699%, 14.118958%)" d="M 354.378906 426.308594 L 354.378906 450.804688 L 378.871094 450.804688 L 378.871094 426.308594 L 354.378906 426.308594 " fill-opacity="1" fill-rule="nonzero"/><path fill="rgb(92.939758%, 10.978699%, 14.118958%)" d="M 329.929688 426.308594 L 329.929688 450.804688 L 354.421875 450.804688 L 354.421875 426.308594 L 329.929688 426.308594 " fill-opacity="1" fill-rule="nonzero"/><path fill="rgb(92.939758%, 10.978699%, 14.118958%)" d="M 305.382812 426.308594 L 305.382812 450.804688 L 329.871094 450.804688 L 329.871094 426.308594 L 305.382812 426.308594 " fill-opacity="1" fill-rule="nonzero"/><path fill="rgb(92.939758%, 10.978699%, 14.118958%)" d="M 280.945312 426.308594 L 280.945312 450.804688 L 305.421875 450.804688 L 305.421875 426.308594 L 280.945312 426.308594 " fill-opacity="1" fill-rule="nonzero"/><path fill="rgb(92.939758%, 10.978699%, 14.118958%)" d="M 256.410156 426.308594 L 256.410156 450.804688 L 280.90625 450.804688 L 280.90625 426.308594 L 256.410156 426.308594 " fill-opacity="1" fill-rule="nonzero"/><path fill="rgb(92.939758%, 10.978699%, 14.118958%)" d="M 231.960938 426.308594 L 231.960938 450.804688 L 256.449219 450.804688 L 256.449219 426.308594 L 231.960938 426.308594 " fill-opacity="1" fill-rule="nonzero"/><path fill="rgb(92.939758%, 10.978699%, 14.118958%)" d="M 207.40625 426.308594 L 207.40625 450.804688 L 231.914062 450.804688 L 231.914062 426.308594 L 207.40625 426.308594 " fill-opacity="1" fill-rule="nonzero"/><path fill="rgb(92.939758%, 10.978699%, 14.118958%)" d="M 182.996094 426.308594 L 182.996094 450.804688 L 207.464844 450.804688 L 207.464844 426.308594 L 182.996094 426.308594 " fill-opacity="1" fill-rule="nonzero"/><path fill="rgb(92.939758%, 10.978699%, 14.118958%)" d="M 158.457031 426.308594 L 158.457031 450.804688 L 182.9375 450.804688 L 182.9375 426.308594 L 158.457031 426.308594 " fill-opacity="1" fill-rule="nonzero"/><path fill="rgb(92.939758%, 10.978699%, 14.118958%)" d="M 134 426.308594 L 134 450.804688 L 158.496094 450.804688 L 158.496094 426.308594 L 134 426.308594 " fill-opacity="1" fill-rule="nonzero"/><path fill="rgb(92.939758%, 10.978699%, 14.118958%)" d="M 354.378906 450.804688 L 354.378906 475.296875 L 378.871094 475.296875 L 378.871094 450.804688 L 354.378906 450.804688 " fill-opacity="1" fill-rule="nonzero"/><path fill="rgb(92.939758%, 10.978699%, 14.118958%)" d="M 329.929688 450.804688 L 329.929688 475.296875 L 354.421875 475.296875 L 354.421875 450.804688 L 329.929688 450.804688 " fill-opacity="1" fill-rule="nonzero"/><path fill="rgb(92.939758%, 10.978699%, 14.118958%)" d="M 305.382812 450.804688 L 305.382812 475.296875 L 329.871094 475.296875 L 329.871094 450.804688 L 305.382812 450.804688 " fill-opacity="1" fill-rule="nonzero"/><path fill="rgb(92.939758%, 10.978699%, 14.118958%)" d="M 280.945312 450.804688 L 280.945312 475.296875 L 305.421875 475.296875 L 305.421875 450.804688 L 280.945312 450.804688 " fill-opacity="1" fill-rule="nonzero"/><path fill="rgb(92.939758%, 10.978699%, 14.118958%)" d="M 256.410156 450.804688 L 256.410156 475.296875 L 280.90625 475.296875 L 280.90625 450.804688 L 256.410156 450.804688 " fill-opacity="1" fill-rule="nonzero"/><path fill="rgb(92.939758%, 10.978699%, 14.118958%)" d="M 231.960938 450.804688 L 231.960938 475.296875 L 256.449219 475.296875 L 256.449219 450.804688 L 231.960938 450.804688 " fill-opacity="1" fill-rule="nonzero"/><path fill="rgb(92.939758%, 10.978699%, 14.118958%)" d="M 207.40625 450.804688 L 207.40625 475.296875 L 231.914062 475.296875 L 231.914062 450.804688 L 207.40625 450.804688 " fill-opacity="1" fill-rule="nonzero"/><path fill="rgb(92.939758%, 10.978699%, 14.118958%)" d="M 182.996094 450.804688 L 182.996094 475.296875 L 207.464844 475.296875 L 207.464844 450.804688 L 182.996094 450.804688 " fill-opacity="1" fill-rule="nonzero"/><path fill="rgb(92.939758%, 10.978699%, 14.118958%)" d="M 158.457031 450.804688 L 158.457031 475.296875 L 182.9375 475.296875 L 182.9375 450.804688 L 158.457031 450.804688 " fill-opacity="1" fill-rule="nonzero"/><path fill="rgb(92.939758%, 10.978699%, 14.118958%)" d="M 134 450.804688 L 134 475.296875 L 158.496094 475.296875 L 158.496094 450.804688 L 134 450.804688 " fill-opacity="1" fill-rule="nonzero"/><path fill="rgb(92.939758%, 10.978699%, 14.118958%)" d="M 109.464844 450.804688 L 109.464844 475.296875 L 133.953125 475.296875 L 133.953125 450.804688 L 109.464844 450.804688 " fill-opacity="1" fill-rule="nonzero"/><path fill="rgb(92.939758%, 10.978699%, 14.118958%)" d="M 354.378906 475.257812 L 354.378906 499.753906 L 378.871094 499.753906 L 378.871094 475.257812 L 354.378906 475.257812 " fill-opacity="1" fill-rule="nonzero"/><path fill="rgb(92.939758%, 10.978699%, 14.118958%)" d="M 329.929688 475.257812 L 329.929688 499.753906 L 354.421875 499.753906 L 354.421875 475.257812 L 329.929688 475.257812 " fill-opacity="1" fill-rule="nonzero"/><path fill="rgb(92.939758%, 10.978699%, 14.118958%)" d="M 305.382812 475.257812 L 305.382812 499.753906 L 329.871094 499.753906 L 329.871094 475.257812 L 305.382812 475.257812 " fill-opacity="1" fill-rule="nonzero"/><path fill="rgb(92.939758%, 10.978699%, 14.118958%)" d="M 280.945312 475.257812 L 280.945312 499.753906 L 305.421875 499.753906 L 305.421875 475.257812 L 280.945312 475.257812 " fill-opacity="1" fill-rule="nonzero"/><path fill="rgb(92.939758%, 10.978699%, 14.118958%)" d="M 256.410156 475.257812 L 256.410156 499.753906 L 280.90625 499.753906 L 280.90625 475.257812 L 256.410156 475.257812 " fill-opacity="1" fill-rule="nonzero"/><path fill="rgb(92.939758%, 10.978699%, 14.118958%)" d="M 231.960938 475.257812 L 231.960938 499.753906 L 256.449219 499.753906 L 256.449219 475.257812 L 231.960938 475.257812 " fill-opacity="1" fill-rule="nonzero"/><path fill="rgb(92.939758%, 10.978699%, 14.118958%)" d="M 207.40625 475.257812 L 207.40625 499.753906 L 231.914062 499.753906 L 231.914062 475.257812 L 207.40625 475.257812 " fill-opacity="1" fill-rule="nonzero"/><path fill="rgb(92.939758%, 10.978699%, 14.118958%)" d="M 182.996094 475.257812 L 182.996094 499.753906 L 207.464844 499.753906 L 207.464844 475.257812 L 182.996094 475.257812 " fill-opacity="1" fill-rule="nonzero"/><path fill="rgb(92.939758%, 10.978699%, 14.118958%)" d="M 158.457031 475.257812 L 158.457031 499.753906 L 182.9375 499.753906 L 182.9375 475.257812 L 158.457031 475.257812 " fill-opacity="1" fill-rule="nonzero"/><path fill="rgb(92.939758%, 10.978699%, 14.118958%)" d="M 134 475.257812 L 134 499.753906 L 158.496094 499.753906 L 158.496094 475.257812 L 134 475.257812 " fill-opacity="1" fill-rule="nonzero"/><path fill="rgb(92.939758%, 10.978699%, 14.118958%)" d="M 109.464844 475.257812 L 109.464844 499.753906 L 133.953125 499.753906 L 133.953125 475.257812 L 109.464844 475.257812 " fill-opacity="1" fill-rule="nonzero"/><path fill="rgb(92.939758%, 10.978699%, 14.118958%)" d="M 85 475.257812 L 85 499.753906 L 109.503906 499.753906 L 109.503906 475.257812 L 85 475.257812 " fill-opacity="1" fill-rule="nonzero"/><path fill="rgb(92.939758%, 10.978699%, 14.118958%)" d="M 354.378906 499.753906 L 354.378906 524.238281 L 378.871094 524.238281 L 378.871094 499.753906 L 354.378906 499.753906 " fill-opacity="1" fill-rule="nonzero"/><path fill="rgb(92.939758%, 10.978699%, 14.118958%)" d="M 329.929688 499.753906 L 329.929688 524.238281 L 354.421875 524.238281 L 354.421875 499.753906 L 329.929688 499.753906 " fill-opacity="1" fill-rule="nonzero"/><path fill="rgb(92.939758%, 10.978699%, 14.118958%)" d="M 305.382812 499.753906 L 305.382812 524.238281 L 329.871094 524.238281 L 329.871094 499.753906 L 305.382812 499.753906 " fill-opacity="1" fill-rule="nonzero"/><path fill="rgb(92.939758%, 10.978699%, 14.118958%)" d="M 280.945312 499.753906 L 280.945312 524.238281 L 305.421875 524.238281 L 305.421875 499.753906 L 280.945312 499.753906 " fill-opacity="1" fill-rule="nonzero"/><path fill="rgb(92.939758%, 10.978699%, 14.118958%)" d="M 256.410156 499.753906 L 256.410156 524.238281 L 280.90625 524.238281 L 280.90625 499.753906 L 256.410156 499.753906 " fill-opacity="1" fill-rule="nonzero"/><path fill="rgb(92.939758%, 10.978699%, 14.118958%)" d="M 231.960938 499.753906 L 231.960938 524.238281 L 256.449219 524.238281 L 256.449219 499.753906 L 231.960938 499.753906 " fill-opacity="1" fill-rule="nonzero"/><path fill="rgb(92.939758%, 10.978699%, 14.118958%)" d="M 207.40625 499.753906 L 207.40625 524.238281 L 231.914062 524.238281 L 231.914062 499.753906 L 207.40625 499.753906 " fill-opacity="1" fill-rule="nonzero"/><path fill="rgb(92.939758%, 10.978699%, 14.118958%)" d="M 182.996094 499.753906 L 182.996094 524.238281 L 207.464844 524.238281 L 207.464844 499.753906 L 182.996094 499.753906 " fill-opacity="1" fill-rule="nonzero"/><path fill="rgb(92.939758%, 10.978699%, 14.118958%)" d="M 158.457031 499.753906 L 158.457031 524.238281 L 182.9375 524.238281 L 182.9375 499.753906 L 158.457031 499.753906 " fill-opacity="1" fill-rule="nonzero"/><path fill="rgb(92.939758%, 10.978699%, 14.118958%)" d="M 134 499.753906 L 134 524.238281 L 158.496094 524.238281 L 158.496094 499.753906 L 134 499.753906 " fill-opacity="1" fill-rule="nonzero"/><path fill="rgb(92.939758%, 10.978699%, 14.118958%)" d="M 109.464844 499.753906 L 109.464844 524.238281 L 133.953125 524.238281 L 133.953125 499.753906 L 109.464844 499.753906 " fill-opacity="1" fill-rule="nonzero"/><path fill="rgb(92.939758%, 10.978699%, 14.118958%)" d="M 85 499.753906 L 85 524.238281 L 109.503906 524.238281 L 109.503906 499.753906 L 85 499.753906 " fill-opacity="1" fill-rule="nonzero"/><path fill="rgb(92.939758%, 10.978699%, 14.118958%)" d="M 354.378906 524.183594 L 354.378906 548.671875 L 378.871094 548.671875 L 378.871094 524.183594 L 354.378906 524.183594 " fill-opacity="1" fill-rule="nonzero"/><path fill="rgb(92.939758%, 10.978699%, 14.118958%)" d="M 329.929688 524.183594 L 329.929688 548.671875 L 354.421875 548.671875 L 354.421875 524.183594 L 329.929688 524.183594 " fill-opacity="1" fill-rule="nonzero"/><path fill="rgb(92.939758%, 10.978699%, 14.118958%)" d="M 305.382812 524.183594 L 305.382812 548.671875 L 329.871094 548.671875 L 329.871094 524.183594 L 305.382812 524.183594 " fill-opacity="1" fill-rule="nonzero"/><path fill="rgb(92.939758%, 10.978699%, 14.118958%)" d="M 280.945312 524.183594 L 280.945312 548.671875 L 305.421875 548.671875 L 305.421875 524.183594 L 280.945312 524.183594 " fill-opacity="1" fill-rule="nonzero"/><path fill="rgb(92.939758%, 10.978699%, 14.118958%)" d="M 256.410156 524.183594 L 256.410156 548.671875 L 280.90625 548.671875 L 280.90625 524.183594 L 256.410156 524.183594 " fill-opacity="1" fill-rule="nonzero"/><path fill="rgb(92.939758%, 10.978699%, 14.118958%)" d="M 231.960938 524.183594 L 231.960938 548.671875 L 256.449219 548.671875 L 256.449219 524.183594 L 231.960938 524.183594 " fill-opacity="1" fill-rule="nonzero"/><path fill="rgb(92.939758%, 10.978699%, 14.118958%)" d="M 207.40625 524.183594 L 207.40625 548.671875 L 231.914062 548.671875 L 231.914062 524.183594 L 207.40625 524.183594 " fill-opacity="1" fill-rule="nonzero"/><path fill="rgb(92.939758%, 10.978699%, 14.118958%)" d="M 182.996094 524.183594 L 182.996094 548.671875 L 207.464844 548.671875 L 207.464844 524.183594 L 182.996094 524.183594 " fill-opacity="1" fill-rule="nonzero"/><path fill="rgb(92.939758%, 10.978699%, 14.118958%)" d="M 158.457031 524.183594 L 158.457031 548.671875 L 182.9375 548.671875 L 182.9375 524.183594 L 158.457031 524.183594 " fill-opacity="1" fill-rule="nonzero"/><path fill="rgb(92.939758%, 10.978699%, 14.118958%)" d="M 134 524.183594 L 134 548.671875 L 158.496094 548.671875 L 158.496094 524.183594 L 134 524.183594 " fill-opacity="1" fill-rule="nonzero"/><path fill="rgb(92.939758%, 10.978699%, 14.118958%)" d="M 109.464844 524.183594 L 109.464844 548.671875 L 133.953125 548.671875 L 133.953125 524.183594 L 109.464844 524.183594 " fill-opacity="1" fill-rule="nonzero"/><path fill="rgb(92.939758%, 10.978699%, 14.118958%)" d="M 85 524.183594 L 85 548.671875 L 109.503906 548.671875 L 109.503906 524.183594 L 85 524.183594 " fill-opacity="1" fill-rule="nonzero"/><path fill="rgb(92.939758%, 10.978699%, 14.118958%)" d="M 354.378906 548.671875 L 354.378906 573.160156 L 378.871094 573.160156 L 378.871094 548.671875 L 354.378906 548.671875 " fill-opacity="1" fill-rule="nonzero"/><path fill="rgb(92.939758%, 10.978699%, 14.118958%)" d="M 329.929688 548.671875 L 329.929688 573.160156 L 354.421875 573.160156 L 354.421875 548.671875 L 329.929688 548.671875 " fill-opacity="1" fill-rule="nonzero"/><path fill="rgb(92.939758%, 10.978699%, 14.118958%)" d="M 305.382812 548.671875 L 305.382812 573.160156 L 329.871094 573.160156 L 329.871094 548.671875 L 305.382812 548.671875 " fill-opacity="1" fill-rule="nonzero"/><path fill="rgb(92.939758%, 10.978699%, 14.118958%)" d="M 280.945312 548.671875 L 280.945312 573.160156 L 305.421875 573.160156 L 305.421875 548.671875 L 280.945312 548.671875 " fill-opacity="1" fill-rule="nonzero"/><path fill="rgb(92.939758%, 10.978699%, 14.118958%)" d="M 256.410156 548.671875 L 256.410156 573.160156 L 280.90625 573.160156 L 280.90625 548.671875 L 256.410156 548.671875 " fill-opacity="1" fill-rule="nonzero"/><path fill="rgb(92.939758%, 10.978699%, 14.118958%)" d="M 231.960938 548.671875 L 231.960938 573.160156 L 256.449219 573.160156 L 256.449219 548.671875 L 231.960938 548.671875 " fill-opacity="1" fill-rule="nonzero"/><path fill="rgb(92.939758%, 10.978699%, 14.118958%)" d="M 207.40625 548.671875 L 207.40625 573.160156 L 231.914062 573.160156 L 231.914062 548.671875 L 207.40625 548.671875 " fill-opacity="1" fill-rule="nonzero"/><path fill="rgb(92.939758%, 10.978699%, 14.118958%)" d="M 182.996094 548.671875 L 182.996094 573.160156 L 207.464844 573.160156 L 207.464844 548.671875 L 182.996094 548.671875 " fill-opacity="1" fill-rule="nonzero"/><path fill="rgb(92.939758%, 10.978699%, 14.118958%)" d="M 158.457031 548.671875 L 158.457031 573.160156 L 182.9375 573.160156 L 182.9375 548.671875 L 158.457031 548.671875 " fill-opacity="1" fill-rule="nonzero"/><path fill="rgb(92.939758%, 10.978699%, 14.118958%)" d="M 134 548.671875 L 134 573.160156 L 158.496094 573.160156 L 158.496094 548.671875 L 134 548.671875 " fill-opacity="1" fill-rule="nonzero"/><path fill="rgb(92.939758%, 10.978699%, 14.118958%)" d="M 109.464844 548.671875 L 109.464844 573.160156 L 133.953125 573.160156 L 133.953125 548.671875 L 109.464844 548.671875 " fill-opacity="1" fill-rule="nonzero"/><path fill="rgb(92.939758%, 10.978699%, 14.118958%)" d="M 85 548.671875 L 85 573.160156 L 109.503906 573.160156 L 109.503906 548.671875 L 85 548.671875 " fill-opacity="1" fill-rule="nonzero"/><path fill="rgb(92.939758%, 10.978699%, 14.118958%)" d="M 354.378906 573.136719 L 354.378906 597.632812 L 378.871094 597.632812 L 378.871094 573.136719 L 354.378906 573.136719 " fill-opacity="1" fill-rule="nonzero"/><path fill="rgb(92.939758%, 10.978699%, 14.118958%)" d="M 329.929688 573.136719 L 329.929688 597.632812 L 354.421875 597.632812 L 354.421875 573.136719 L 329.929688 573.136719 " fill-opacity="1" fill-rule="nonzero"/><path fill="rgb(92.939758%, 10.978699%, 14.118958%)" d="M 305.382812 573.136719 L 305.382812 597.632812 L 329.871094 597.632812 L 329.871094 573.136719 L 305.382812 573.136719 " fill-opacity="1" fill-rule="nonzero"/><path fill="rgb(92.939758%, 10.978699%, 14.118958%)" d="M 280.945312 573.136719 L 280.945312 597.632812 L 305.421875 597.632812 L 305.421875 573.136719 L 280.945312 573.136719 " fill-opacity="1" fill-rule="nonzero"/><path fill="rgb(92.939758%, 10.978699%, 14.118958%)" d="M 256.410156 573.136719 L 256.410156 597.632812 L 280.90625 597.632812 L 280.90625 573.136719 L 256.410156 573.136719 " fill-opacity="1" fill-rule="nonzero"/><path fill="rgb(92.939758%, 10.978699%, 14.118958%)" d="M 231.960938 573.136719 L 231.960938 597.632812 L 256.449219 597.632812 L 256.449219 573.136719 L 231.960938 573.136719 " fill-opacity="1" fill-rule="nonzero"/><path fill="rgb(92.939758%, 10.978699%, 14.118958%)" d="M 207.40625 573.136719 L 207.40625 597.632812 L 231.914062 597.632812 L 231.914062 573.136719 L 207.40625 573.136719 " fill-opacity="1" fill-rule="nonzero"/><path fill="rgb(92.939758%, 10.978699%, 14.118958%)" d="M 182.996094 573.136719 L 182.996094 597.632812 L 207.464844 597.632812 L 207.464844 573.136719 L 182.996094 573.136719 " fill-opacity="1" fill-rule="nonzero"/><path fill="rgb(92.939758%, 10.978699%, 14.118958%)" d="M 158.457031 573.136719 L 158.457031 597.632812 L 182.9375 597.632812 L 182.9375 573.136719 L 158.457031 573.136719 " fill-opacity="1" fill-rule="nonzero"/><path fill="rgb(92.939758%, 10.978699%, 14.118958%)" d="M 134 573.136719 L 134 597.632812 L 158.496094 597.632812 L 158.496094 573.136719 L 134 573.136719 " fill-opacity="1" fill-rule="nonzero"/><path fill="rgb(92.939758%, 10.978699%, 14.118958%)" d="M 109.464844 573.136719 L 109.464844 597.632812 L 133.953125 597.632812 L 133.953125 573.136719 L 109.464844 573.136719 " fill-opacity="1" fill-rule="nonzero"/><path fill="rgb(92.939758%, 10.978699%, 14.118958%)" d="M 85 573.136719 L 85 597.632812 L 109.503906 597.632812 L 109.503906 573.136719 L 85 573.136719 " fill-opacity="1" fill-rule="nonzero"/><g clip-path="url(#id1)"><path fill="rgb(92.939758%, 10.978699%, 14.118958%)" d="M 378.871094 600 L 378.871094 597.632812 L 354.378906 597.632812 L 354.378906 600 L 378.871094 600 " fill-opacity="1" fill-rule="nonzero"/></g><path fill="rgb(92.939758%, 10.978699%, 14.118958%)" d="M 354.421875 600 L 354.421875 597.632812 L 329.929688 597.632812 L 329.929688 600 L 354.421875 600 " fill-opacity="1" fill-rule="nonzero"/><path fill="rgb(92.939758%, 10.978699%, 14.118958%)" d="M 329.871094 600 L 329.871094 597.632812 L 305.382812 597.632812 L 305.382812 600 L 329.871094 600 " fill-opacity="1" fill-rule="nonzero"/><path fill="rgb(92.939758%, 10.978699%, 14.118958%)" d="M 305.421875 600 L 305.421875 597.632812 L 280.945312 597.632812 L 280.945312 600 L 305.421875 600 " fill-opacity="1" fill-rule="nonzero"/><path fill="rgb(92.939758%, 10.978699%, 14.118958%)" d="M 280.90625 600 L 280.90625 597.632812 L 256.410156 597.632812 L 256.410156 600 L 280.90625 600 " fill-opacity="1" fill-rule="nonzero"/><path fill="rgb(92.939758%, 10.978699%, 14.118958%)" d="M 256.449219 600 L 256.449219 597.632812 L 231.960938 597.632812 L 231.960938 600 L 256.449219 600 " fill-opacity="1" fill-rule="nonzero"/><path fill="rgb(92.939758%, 10.978699%, 14.118958%)" d="M 231.914062 600 L 231.914062 597.632812 L 207.40625 597.632812 L 207.40625 600 L 231.914062 600 " fill-opacity="1" fill-rule="nonzero"/><path fill="rgb(92.939758%, 10.978699%, 14.118958%)" d="M 207.464844 600 L 207.464844 597.632812 L 182.996094 597.632812 L 182.996094 600 L 207.464844 600 " fill-opacity="1" fill-rule="nonzero"/><path fill="rgb(92.939758%, 10.978699%, 14.118958%)" d="M 182.9375 600 L 182.9375 597.632812 L 158.457031 597.632812 L 158.457031 600 L 182.9375 600 " fill-opacity="1" fill-rule="nonzero"/><path fill="rgb(92.939758%, 10.978699%, 14.118958%)" d="M 158.496094 600 L 158.496094 597.632812 L 134 597.632812 L 134 600 L 158.496094 600 " fill-opacity="1" fill-rule="nonzero"/><path fill="rgb(92.939758%, 10.978699%, 14.118958%)" d="M 133.953125 600 L 133.953125 597.632812 L 109.464844 597.632812 L 109.464844 600 L 133.953125 600 " fill-opacity="1" fill-rule="nonzero"/><path fill="rgb(92.939758%, 10.978699%, 14.118958%)" d="M 109.503906 600 L 109.503906 597.632812 L 85 597.632812 L 85 600 L 109.503906 600 " fill-opacity="1" fill-rule="nonzero"/><path fill="rgb(71.369934%, 7.839966%, 10.198975%)" d="M 147.90625 195.875 L 147.90625 220.375 L 172.394531 220.375 L 172.394531 195.875 L 147.90625 195.875 " fill-opacity="1" fill-rule="nonzero"/><path fill="rgb(71.369934%, 7.839966%, 10.198975%)" d="M 147.90625 220.375 L 147.90625 244.859375 L 172.394531 244.859375 L 172.394531 220.375 L 147.90625 220.375 " fill-opacity="1" fill-rule="nonzero"/><path fill="rgb(71.369934%, 7.839966%, 10.198975%)" d="M 196.996094 122.292969 L 196.996094 146.789062 L 221.5 146.789062 L 221.5 122.292969 L 196.996094 122.292969 " fill-opacity="1" fill-rule="nonzero"/><path fill="rgb(71.369934%, 7.839966%, 10.198975%)" d="M 172.394531 171.382812 L 172.394531 195.875 L 196.878906 195.875 L 196.878906 171.382812 L 172.394531 171.382812 " fill-opacity="1" fill-rule="nonzero"/><path fill="rgb(29.019165%, 40.779114%, 47.059631%)" d="M 466.34375 269.355469 L 466.34375 293.84375 L 490.847656 293.84375 L 490.847656 269.355469 L 466.34375 269.355469 " fill-opacity="1" fill-rule="nonzero"/><path fill="rgb(29.019165%, 40.779114%, 47.059631%)" d="M 441.828125 269.355469 L 441.828125 293.84375 L 466.3125 293.84375 L 466.3125 269.355469 L 441.828125 269.355469 " fill-opacity="1" fill-rule="nonzero"/><path fill="rgb(29.40979%, 8.628845%, 8.239746%)" d="M 392.835938 269.355469 L 392.835938 293.84375 L 417.3125 293.84375 L 417.3125 269.355469 L 392.835938 269.355469 " fill-opacity="1" fill-rule="nonzero"/><path fill="rgb(29.40979%, 8.628845%, 8.239746%)" d="M 221.441406 269.355469 L 221.441406 293.84375 L 245.929688 293.84375 L 245.929688 269.355469 L 221.441406 269.355469 " fill-opacity="1" fill-rule="nonzero"/><path fill="rgb(43.919373%, 56.469727%, 62.348938%)" d="M 392.835938 122.40625 L 392.835938 146.902344 L 417.3125 146.902344 L 417.3125 122.40625 L 392.835938 122.40625 " fill-opacity="1" fill-rule="nonzero"/><path fill="rgb(29.019165%, 40.779114%, 47.059631%)" d="M 368.386719 122.40625 L 368.386719 146.902344 L 392.875 146.902344 L 392.875 122.40625 L 368.386719 122.40625 " fill-opacity="1" fill-rule="nonzero"/><path fill="rgb(29.019165%, 40.779114%, 47.059631%)" d="M 343.867188 122.40625 L 343.867188 146.902344 L 368.367188 146.902344 L 368.367188 122.40625 L 343.867188 122.40625 " fill-opacity="1" fill-rule="nonzero"/><path fill="rgb(29.019165%, 40.779114%, 47.059631%)" d="M 319.417969 122.40625 L 319.417969 146.902344 L 343.917969 146.902344 L 343.917969 122.40625 L 319.417969 122.40625 " fill-opacity="1" fill-rule="nonzero"/><path fill="rgb(29.019165%, 40.779114%, 47.059631%)" d="M 294.875 122.40625 L 294.875 146.902344 L 319.351562 146.902344 L 319.351562 122.40625 L 294.875 122.40625 " fill-opacity="1" fill-rule="nonzero"/><path fill="rgb(29.019165%, 40.779114%, 47.059631%)" d="M 270.417969 122.40625 L 270.417969 146.902344 L 294.902344 146.902344 L 294.902344 122.40625 L 270.417969 122.40625 " fill-opacity="1" fill-rule="nonzero"/><path fill="rgb(29.019165%, 40.779114%, 47.059631%)" d="M 245.902344 122.40625 L 245.902344 146.902344 L 270.390625 146.902344 L 270.390625 122.40625 L 245.902344 122.40625 " fill-opacity="1" fill-rule="nonzero"/><path fill="rgb(29.019165%, 40.779114%, 47.059631%)" d="M 221.441406 122.40625 L 221.441406 146.902344 L 245.929688 146.902344 L 245.929688 122.40625 L 221.441406 122.40625 " fill-opacity="1" fill-rule="nonzero"/><path fill="rgb(29.019165%, 40.779114%, 47.059631%)" d="M 172.460938 269.355469 L 172.460938 293.84375 L 196.953125 293.84375 L 196.953125 269.355469 L 172.460938 269.355469 " fill-opacity="1" fill-rule="nonzero"/><path fill="rgb(29.019165%, 40.779114%, 47.059631%)" d="M 441.828125 244.691406 L 441.828125 269.183594 L 466.3125 269.183594 L 466.3125 244.691406 L 441.828125 244.691406 " fill-opacity="1" fill-rule="nonzero"/><path fill="rgb(29.019165%, 40.779114%, 47.059631%)" d="M 172.460938 244.691406 L 172.460938 269.183594 L 196.953125 269.183594 L 196.953125 244.691406 L 172.460938 244.691406 " fill-opacity="1" fill-rule="nonzero"/><path fill="rgb(43.919373%, 56.469727%, 62.348938%)" d="M 441.828125 220.433594 L 441.828125 244.929688 L 466.3125 244.929688 L 466.3125 220.433594 L 441.828125 220.433594 " fill-opacity="1" fill-rule="nonzero"/><path fill="rgb(29.019165%, 40.779114%, 47.059631%)" d="M 172.460938 220.433594 L 172.460938 244.929688 L 196.953125 244.929688 L 196.953125 220.433594 L 172.460938 220.433594 " fill-opacity="1" fill-rule="nonzero"/><path fill="rgb(43.919373%, 56.469727%, 62.348938%)" d="M 417.378906 195.941406 L 417.378906 220.433594 L 441.875 220.433594 L 441.875 195.941406 L 417.378906 195.941406 " fill-opacity="1" fill-rule="nonzero"/><path fill="rgb(29.019165%, 40.779114%, 47.059631%)" d="M 392.835938 195.941406 L 392.835938 220.433594 L 417.3125 220.433594 L 417.3125 195.941406 L 392.835938 195.941406 " fill-opacity="1" fill-rule="nonzero"/><path fill="rgb(29.019165%, 40.779114%, 47.059631%)" d="M 368.386719 195.941406 L 368.386719 220.433594 L 392.875 220.433594 L 392.875 195.941406 L 368.386719 195.941406 " fill-opacity="1" fill-rule="nonzero"/><path fill="rgb(29.019165%, 40.779114%, 47.059631%)" d="M 343.867188 195.941406 L 343.867188 220.433594 L 368.367188 220.433594 L 368.367188 195.941406 L 343.867188 195.941406 " fill-opacity="1" fill-rule="nonzero"/><path fill="rgb(29.019165%, 40.779114%, 47.059631%)" d="M 319.417969 195.941406 L 319.417969 220.433594 L 343.917969 220.433594 L 343.917969 195.941406 L 319.417969 195.941406 " fill-opacity="1" fill-rule="nonzero"/><path fill="rgb(29.019165%, 40.779114%, 47.059631%)" d="M 294.875 195.941406 L 294.875 220.433594 L 319.351562 220.433594 L 319.351562 195.941406 L 294.875 195.941406 " fill-opacity="1" fill-rule="nonzero"/><path fill="rgb(29.019165%, 40.779114%, 47.059631%)" d="M 270.417969 195.941406 L 270.417969 220.433594 L 294.902344 220.433594 L 294.902344 195.941406 L 270.417969 195.941406 " fill-opacity="1" fill-rule="nonzero"/><path fill="rgb(29.019165%, 40.779114%, 47.059631%)" d="M 245.902344 195.941406 L 245.902344 220.433594 L 270.390625 220.433594 L 270.390625 195.941406 L 245.902344 195.941406 " fill-opacity="1" fill-rule="nonzero"/><path fill="rgb(29.019165%, 40.779114%, 47.059631%)" d="M 221.441406 195.941406 L 221.441406 220.433594 L 245.929688 220.433594 L 245.929688 195.941406 L 221.441406 195.941406 " fill-opacity="1" fill-rule="nonzero"/><path fill="rgb(29.019165%, 40.779114%, 47.059631%)" d="M 196.890625 195.941406 L 196.890625 220.433594 L 221.40625 220.433594 L 221.40625 195.941406 L 196.890625 195.941406 " fill-opacity="1" fill-rule="nonzero"/><path fill="rgb(43.919373%, 56.469727%, 62.348938%)" d="M 417.378906 171.449219 L 417.378906 195.941406 L 441.875 195.941406 L 441.875 171.449219 L 417.378906 171.449219 " fill-opacity="1" fill-rule="nonzero"/><path fill="rgb(29.019165%, 40.779114%, 47.059631%)" d="M 392.835938 171.449219 L 392.835938 195.941406 L 417.3125 195.941406 L 417.3125 171.449219 L 392.835938 171.449219 " fill-opacity="1" fill-rule="nonzero"/><path fill="rgb(29.019165%, 40.779114%, 47.059631%)" d="M 368.386719 171.449219 L 368.386719 195.941406 L 392.875 195.941406 L 392.875 171.449219 L 368.386719 171.449219 " fill-opacity="1" fill-rule="nonzero"/><path fill="rgb(29.019165%, 40.779114%, 47.059631%)" d="M 343.867188 171.449219 L 343.867188 195.941406 L 368.367188 195.941406 L 368.367188 171.449219 L 343.867188 171.449219 " fill-opacity="1" fill-rule="nonzero"/><path fill="rgb(29.019165%, 40.779114%, 47.059631%)" d="M 319.417969 171.449219 L 319.417969 195.941406 L 343.917969 195.941406 L 343.917969 171.449219 L 319.417969 171.449219 " fill-opacity="1" fill-rule="nonzero"/><path fill="rgb(29.019165%, 40.779114%, 47.059631%)" d="M 294.875 171.449219 L 294.875 195.941406 L 319.351562 195.941406 L 319.351562 171.449219 L 294.875 171.449219 " fill-opacity="1" fill-rule="nonzero"/><path fill="rgb(29.019165%, 40.779114%, 47.059631%)" d="M 270.417969 171.449219 L 270.417969 195.941406 L 294.902344 195.941406 L 294.902344 171.449219 L 270.417969 171.449219 " fill-opacity="1" fill-rule="nonzero"/><path fill="rgb(29.019165%, 40.779114%, 47.059631%)" d="M 245.902344 171.449219 L 245.902344 195.941406 L 270.390625 195.941406 L 270.390625 171.449219 L 245.902344 171.449219 " fill-opacity="1" fill-rule="nonzero"/><path fill="rgb(29.019165%, 40.779114%, 47.059631%)" d="M 221.441406 171.449219 L 221.441406 195.941406 L 245.929688 195.941406 L 245.929688 171.449219 L 221.441406 171.449219 " fill-opacity="1" fill-rule="nonzero"/><path fill="rgb(43.919373%, 56.469727%, 62.348938%)" d="M 392.835938 146.847656 L 392.835938 171.332031 L 417.3125 171.332031 L 417.3125 146.847656 L 392.835938 146.847656 " fill-opacity="1" fill-rule="nonzero"/><path fill="rgb(29.019165%, 40.779114%, 47.059631%)" d="M 368.386719 146.847656 L 368.386719 171.332031 L 392.875 171.332031 L 392.875 146.847656 L 368.386719 146.847656 " fill-opacity="1" fill-rule="nonzero"/><path fill="rgb(29.019165%, 40.779114%, 47.059631%)" d="M 343.867188 146.847656 L 343.867188 171.332031 L 368.367188 171.332031 L 368.367188 146.847656 L 343.867188 146.847656 " fill-opacity="1" fill-rule="nonzero"/><path fill="rgb(29.019165%, 40.779114%, 47.059631%)" d="M 319.417969 146.847656 L 319.417969 171.332031 L 343.917969 171.332031 L 343.917969 146.847656 L 319.417969 146.847656 " fill-opacity="1" fill-rule="nonzero"/><path fill="rgb(29.019165%, 40.779114%, 47.059631%)" d="M 294.875 146.847656 L 294.875 171.332031 L 319.351562 171.332031 L 319.351562 146.847656 L 294.875 146.847656 " fill-opacity="1" fill-rule="nonzero"/><path fill="rgb(29.019165%, 40.779114%, 47.059631%)" d="M 270.417969 146.847656 L 270.417969 171.332031 L 294.902344 171.332031 L 294.902344 146.847656 L 270.417969 146.847656 " fill-opacity="1" fill-rule="nonzero"/><path fill="rgb(29.019165%, 40.779114%, 47.059631%)" d="M 245.902344 146.847656 L 245.902344 171.332031 L 270.390625 171.332031 L 270.390625 146.847656 L 245.902344 146.847656 " fill-opacity="1" fill-rule="nonzero"/><path fill="rgb(29.019165%, 40.779114%, 47.059631%)" d="M 221.441406 146.847656 L 221.441406 171.332031 L 245.929688 171.332031 L 245.929688 146.847656 L 221.441406 146.847656 " fill-opacity="1" fill-rule="nonzero"/><path fill="rgb(29.019165%, 40.779114%, 47.059631%)" d="M 196.890625 171.449219 L 196.890625 195.941406 L 221.40625 195.941406 L 221.40625 171.449219 L 196.890625 171.449219 " fill-opacity="1" fill-rule="nonzero"/><path fill="rgb(29.019165%, 40.779114%, 47.059631%)" d="M 148.019531 269.355469 L 148.019531 293.84375 L 172.515625 293.84375 L 172.515625 269.355469 L 148.019531 269.355469 " fill-opacity="1" fill-rule="nonzero"/><path fill="rgb(29.019165%, 40.779114%, 47.059631%)" d="M 466.34375 293.902344 L 466.34375 318.398438 L 490.847656 318.398438 L 490.847656 293.902344 L 466.34375 293.902344 " fill-opacity="1" fill-rule="nonzero"/><path fill="rgb(29.019165%, 40.779114%, 47.059631%)" d="M 441.828125 293.902344 L 441.828125 318.398438 L 466.3125 318.398438 L 466.3125 293.902344 L 441.828125 293.902344 " fill-opacity="1" fill-rule="nonzero"/><path fill="rgb(97.648621%, 65.098572%, 47.059631%)" d="M 392.835938 293.902344 L 392.835938 318.398438 L 417.3125 318.398438 L 417.3125 293.902344 L 392.835938 293.902344 " fill-opacity="1" fill-rule="nonzero"/><path fill="rgb(97.648621%, 65.098572%, 47.059631%)" d="M 221.441406 293.902344 L 221.441406 318.398438 L 245.929688 318.398438 L 245.929688 293.902344 L 221.441406 293.902344 " fill-opacity="1" fill-rule="nonzero"/><path fill="rgb(29.019165%, 40.779114%, 47.059631%)" d="M 172.460938 293.902344 L 172.460938 318.398438 L 196.953125 318.398438 L 196.953125 293.902344 L 172.460938 293.902344 " fill-opacity="1" fill-rule="nonzero"/><path fill="rgb(29.019165%, 40.779114%, 47.059631%)" d="M 147.933594 293.902344 L 147.933594 318.398438 L 172.421875 318.398438 L 172.421875 293.902344 L 147.933594 293.902344 " fill-opacity="1" fill-rule="nonzero"/><path fill="rgb(29.019165%, 40.779114%, 47.059631%)" d="M 466.34375 318.332031 L 466.34375 342.828125 L 490.847656 342.828125 L 490.847656 318.332031 L 466.34375 318.332031 " fill-opacity="1" fill-rule="nonzero"/><path fill="rgb(29.019165%, 40.779114%, 47.059631%)" d="M 441.828125 318.332031 L 441.828125 342.828125 L 466.3125 342.828125 L 466.3125 318.332031 L 441.828125 318.332031 " fill-opacity="1" fill-rule="nonzero"/><path fill="rgb(29.019165%, 40.779114%, 47.059631%)" d="M 172.460938 318.332031 L 172.460938 342.828125 L 196.953125 342.828125 L 196.953125 318.332031 L 172.460938 318.332031 " fill-opacity="1" fill-rule="nonzero"/><path fill="rgb(29.019165%, 40.779114%, 47.059631%)" d="M 147.933594 318.332031 L 147.933594 342.828125 L 172.421875 342.828125 L 172.421875 318.332031 L 147.933594 318.332031 " fill-opacity="1" fill-rule="nonzero"/><path fill="rgb(29.019165%, 40.779114%, 47.059631%)" d="M 466.34375 342.714844 L 466.34375 367.203125 L 490.847656 367.203125 L 490.847656 342.714844 L 466.34375 342.714844 " fill-opacity="1" fill-rule="nonzero"/><path fill="rgb(29.019165%, 40.779114%, 47.059631%)" d="M 441.828125 342.714844 L 441.828125 367.203125 L 466.3125 367.203125 L 466.3125 342.714844 L 441.828125 342.714844 " fill-opacity="1" fill-rule="nonzero"/><path fill="rgb(97.648621%, 65.098572%, 47.059631%)" d="M 417.378906 269.355469 L 417.378906 293.84375 L 441.875 293.84375 L 441.875 269.355469 L 417.378906 269.355469 " fill-opacity="1" fill-rule="nonzero"/><path fill="rgb(97.648621%, 65.098572%, 47.059631%)" d="M 368.386719 269.355469 L 368.386719 293.84375 L 392.875 293.84375 L 392.875 269.355469 L 368.386719 269.355469 " fill-opacity="1" fill-rule="nonzero"/><path fill="rgb(97.648621%, 65.098572%, 47.059631%)" d="M 343.867188 269.355469 L 343.867188 293.84375 L 368.367188 293.84375 L 368.367188 269.355469 L 343.867188 269.355469 " fill-opacity="1" fill-rule="nonzero"/><path fill="rgb(97.648621%, 65.098572%, 47.059631%)" d="M 319.417969 269.355469 L 319.417969 293.84375 L 343.917969 293.84375 L 343.917969 269.355469 L 319.417969 269.355469 " fill-opacity="1" fill-rule="nonzero"/><path fill="rgb(97.648621%, 65.098572%, 47.059631%)" d="M 294.875 269.355469 L 294.875 293.84375 L 319.351562 293.84375 L 319.351562 269.355469 L 294.875 269.355469 " fill-opacity="1" fill-rule="nonzero"/><path fill="rgb(97.648621%, 65.098572%, 47.059631%)" d="M 270.417969 269.355469 L 270.417969 293.84375 L 294.902344 293.84375 L 294.902344 269.355469 L 270.417969 269.355469 " fill-opacity="1" fill-rule="nonzero"/><path fill="rgb(97.648621%, 65.098572%, 47.059631%)" d="M 245.902344 269.355469 L 245.902344 293.84375 L 270.390625 293.84375 L 270.390625 269.355469 L 245.902344 269.355469 " fill-opacity="1" fill-rule="nonzero"/><path fill="rgb(97.648621%, 65.098572%, 47.059631%)" d="M 196.890625 269.355469 L 196.890625 293.84375 L 221.40625 293.84375 L 221.40625 269.355469 L 196.890625 269.355469 " fill-opacity="1" fill-rule="nonzero"/><path fill="rgb(97.648621%, 65.098572%, 47.059631%)" d="M 417.378906 244.691406 L 417.378906 269.183594 L 441.875 269.183594 L 441.875 244.691406 L 417.378906 244.691406 " fill-opacity="1" fill-rule="nonzero"/><path fill="rgb(29.40979%, 8.628845%, 8.239746%)" d="M 392.835938 244.691406 L 392.835938 269.183594 L 417.3125 269.183594 L 417.3125 244.691406 L 392.835938 244.691406 " fill-opacity="1" fill-rule="nonzero"/><path fill="rgb(97.648621%, 65.098572%, 47.059631%)" d="M 368.386719 244.691406 L 368.386719 269.183594 L 392.875 269.183594 L 392.875 244.691406 L 368.386719 244.691406 " fill-opacity="1" fill-rule="nonzero"/><path fill="rgb(97.648621%, 65.098572%, 47.059631%)" d="M 343.867188 244.691406 L 343.867188 269.183594 L 368.367188 269.183594 L 368.367188 244.691406 L 343.867188 244.691406 " fill-opacity="1" fill-rule="nonzero"/><path fill="rgb(97.648621%, 65.098572%, 47.059631%)" d="M 319.417969 244.691406 L 319.417969 269.183594 L 343.917969 269.183594 L 343.917969 244.691406 L 319.417969 244.691406 " fill-opacity="1" fill-rule="nonzero"/><path fill="rgb(97.648621%, 65.098572%, 47.059631%)" d="M 294.875 244.691406 L 294.875 269.183594 L 319.351562 269.183594 L 319.351562 244.691406 L 294.875 244.691406 " fill-opacity="1" fill-rule="nonzero"/><path fill="rgb(97.648621%, 65.098572%, 47.059631%)" d="M 270.417969 244.691406 L 270.417969 269.183594 L 294.902344 269.183594 L 294.902344 244.691406 L 270.417969 244.691406 " fill-opacity="1" fill-rule="nonzero"/><path fill="rgb(97.648621%, 65.098572%, 47.059631%)" d="M 245.902344 244.691406 L 245.902344 269.183594 L 270.390625 269.183594 L 270.390625 244.691406 L 245.902344 244.691406 " fill-opacity="1" fill-rule="nonzero"/><path fill="rgb(29.40979%, 8.628845%, 8.239746%)" d="M 221.441406 244.691406 L 221.441406 269.183594 L 245.929688 269.183594 L 245.929688 244.691406 L 221.441406 244.691406 " fill-opacity="1" fill-rule="nonzero"/><path fill="rgb(97.648621%, 65.098572%, 47.059631%)" d="M 196.890625 244.691406 L 196.890625 269.183594 L 221.40625 269.183594 L 221.40625 244.691406 L 196.890625 244.691406 " fill-opacity="1" fill-rule="nonzero"/><path fill="rgb(97.648621%, 65.098572%, 47.059631%)" d="M 417.378906 220.433594 L 417.378906 244.929688 L 441.875 244.929688 L 441.875 220.433594 L 417.378906 220.433594 " fill-opacity="1" fill-rule="nonzero"/><path fill="rgb(97.648621%, 65.098572%, 47.059631%)" d="M 392.835938 220.433594 L 392.835938 244.929688 L 417.3125 244.929688 L 417.3125 220.433594 L 392.835938 220.433594 " fill-opacity="1" fill-rule="nonzero"/><path fill="rgb(97.648621%, 65.098572%, 47.059631%)" d="M 368.386719 220.433594 L 368.386719 244.929688 L 392.875 244.929688 L 392.875 220.433594 L 368.386719 220.433594 " fill-opacity="1" fill-rule="nonzero"/><path fill="rgb(97.648621%, 65.098572%, 47.059631%)" d="M 343.867188 220.433594 L 343.867188 244.929688 L 368.367188 244.929688 L 368.367188 220.433594 L 343.867188 220.433594 " fill-opacity="1" fill-rule="nonzero"/><path fill="rgb(97.648621%, 65.098572%, 47.059631%)" d="M 319.417969 220.433594 L 319.417969 244.929688 L 343.917969 244.929688 L 343.917969 220.433594 L 319.417969 220.433594 " fill-opacity="1" fill-rule="nonzero"/><path fill="rgb(97.648621%, 65.098572%, 47.059631%)" d="M 294.875 220.433594 L 294.875 244.929688 L 319.351562 244.929688 L 319.351562 220.433594 L 294.875 220.433594 " fill-opacity="1" fill-rule="nonzero"/><path fill="rgb(97.648621%, 65.098572%, 47.059631%)" d="M 270.417969 220.433594 L 270.417969 244.929688 L 294.902344 244.929688 L 294.902344 220.433594 L 270.417969 220.433594 " fill-opacity="1" fill-rule="nonzero"/><path fill="rgb(97.648621%, 65.098572%, 47.059631%)" d="M 245.902344 220.433594 L 245.902344 244.929688 L 270.390625 244.929688 L 270.390625 220.433594 L 245.902344 220.433594 " fill-opacity="1" fill-rule="nonzero"/><path fill="rgb(97.648621%, 65.098572%, 47.059631%)" d="M 221.441406 220.433594 L 221.441406 244.929688 L 245.929688 244.929688 L 245.929688 220.433594 L 221.441406 220.433594 " fill-opacity="1" fill-rule="nonzero"/><path fill="rgb(97.648621%, 65.098572%, 47.059631%)" d="M 196.890625 220.433594 L 196.890625 244.929688 L 221.40625 244.929688 L 221.40625 220.433594 L 196.890625 220.433594 " fill-opacity="1" fill-rule="nonzero"/><path fill="rgb(97.648621%, 65.098572%, 47.059631%)" d="M 417.378906 293.902344 L 417.378906 318.398438 L 441.875 318.398438 L 441.875 293.902344 L 417.378906 293.902344 " fill-opacity="1" fill-rule="nonzero"/><path fill="rgb(97.648621%, 65.098572%, 47.059631%)" d="M 368.386719 293.902344 L 368.386719 318.398438 L 392.875 318.398438 L 392.875 293.902344 L 368.386719 293.902344 " fill-opacity="1" fill-rule="nonzero"/><path fill="rgb(97.648621%, 65.098572%, 47.059631%)" d="M 343.867188 293.902344 L 343.867188 318.398438 L 368.367188 318.398438 L 368.367188 293.902344 L 343.867188 293.902344 " fill-opacity="1" fill-rule="nonzero"/><path fill="rgb(97.648621%, 65.098572%, 47.059631%)" d="M 319.417969 293.902344 L 319.417969 318.398438 L 343.917969 318.398438 L 343.917969 293.902344 L 319.417969 293.902344 " fill-opacity="1" fill-rule="nonzero"/><path fill="rgb(97.648621%, 65.098572%, 47.059631%)" d="M 294.875 293.902344 L 294.875 318.398438 L 319.351562 318.398438 L 319.351562 293.902344 L 294.875 293.902344 " fill-opacity="1" fill-rule="nonzero"/><path fill="rgb(97.648621%, 65.098572%, 47.059631%)" d="M 270.417969 293.902344 L 270.417969 318.398438 L 294.902344 318.398438 L 294.902344 293.902344 L 270.417969 293.902344 " fill-opacity="1" fill-rule="nonzero"/><path fill="rgb(97.648621%, 65.098572%, 47.059631%)" d="M 245.902344 293.902344 L 245.902344 318.398438 L 270.390625 318.398438 L 270.390625 293.902344 L 245.902344 293.902344 " fill-opacity="1" fill-rule="nonzero"/><path fill="rgb(97.648621%, 65.098572%, 47.059631%)" d="M 196.890625 293.902344 L 196.890625 318.398438 L 221.40625 318.398438 L 221.40625 293.902344 L 196.890625 293.902344 " fill-opacity="1" fill-rule="nonzero"/><path fill="rgb(97.648621%, 65.098572%, 47.059631%)" d="M 417.378906 318.332031 L 417.378906 342.828125 L 441.875 342.828125 L 441.875 318.332031 L 417.378906 318.332031 " fill-opacity="1" fill-rule="nonzero"/><path fill="rgb(97.648621%, 65.098572%, 47.059631%)" d="M 392.835938 318.332031 L 392.835938 342.828125 L 417.3125 342.828125 L 417.3125 318.332031 L 392.835938 318.332031 " fill-opacity="1" fill-rule="nonzero"/><path fill="rgb(100%, 100%, 100%)" d="M 368.386719 318.332031 L 368.386719 342.828125 L 392.875 342.828125 L 392.875 318.332031 L 368.386719 318.332031 " fill-opacity="1" fill-rule="nonzero"/><path fill="rgb(100%, 100%, 100%)" d="M 343.867188 318.332031 L 343.867188 342.828125 L 368.367188 342.828125 L 368.367188 318.332031 L 343.867188 318.332031 " fill-opacity="1" fill-rule="nonzero"/><path fill="rgb(100%, 100%, 100%)" d="M 319.417969 318.332031 L 319.417969 342.828125 L 343.917969 342.828125 L 343.917969 318.332031 L 319.417969 318.332031 " fill-opacity="1" fill-rule="nonzero"/><path fill="rgb(100%, 100%, 100%)" d="M 294.875 318.332031 L 294.875 342.828125 L 319.351562 342.828125 L 319.351562 318.332031 L 294.875 318.332031 " fill-opacity="1" fill-rule="nonzero"/><path fill="rgb(100%, 100%, 100%)" d="M 270.417969 318.332031 L 270.417969 342.828125 L 294.902344 342.828125 L 294.902344 318.332031 L 270.417969 318.332031 " fill-opacity="1" fill-rule="nonzero"/><path fill="rgb(100%, 100%, 100%)" d="M 245.902344 318.332031 L 245.902344 342.828125 L 270.390625 342.828125 L 270.390625 318.332031 L 245.902344 318.332031 " fill-opacity="1" fill-rule="nonzero"/><path fill="rgb(97.648621%, 65.098572%, 47.059631%)" d="M 221.441406 318.332031 L 221.441406 342.828125 L 245.929688 342.828125 L 245.929688 318.332031 L 221.441406 318.332031 " fill-opacity="1" fill-rule="nonzero"/><path fill="rgb(97.648621%, 65.098572%, 47.059631%)" d="M 196.890625 318.332031 L 196.890625 342.828125 L 221.40625 342.828125 L 221.40625 318.332031 L 196.890625 318.332031 " fill-opacity="1" fill-rule="nonzero"/><path fill="rgb(97.648621%, 65.098572%, 47.059631%)" d="M 417.378906 342.714844 L 417.378906 367.203125 L 441.875 367.203125 L 441.875 342.714844 L 417.378906 342.714844 " fill-opacity="1" fill-rule="nonzero"/><path fill="rgb(97.648621%, 65.098572%, 47.059631%)" d="M 392.835938 342.714844 L 392.835938 367.203125 L 417.3125 367.203125 L 417.3125 342.714844 L 392.835938 342.714844 " fill-opacity="1" fill-rule="nonzero"/><path fill="rgb(100%, 100%, 100%)" d="M 368.386719 342.714844 L 368.386719 367.203125 L 392.875 367.203125 L 392.875 342.714844 L 368.386719 342.714844 " fill-opacity="1" fill-rule="nonzero"/><path fill="rgb(100%, 100%, 100%)" d="M 343.867188 342.714844 L 343.867188 367.203125 L 368.367188 367.203125 L 368.367188 342.714844 L 343.867188 342.714844 " fill-opacity="1" fill-rule="nonzero"/><path fill="rgb(100%, 100%, 100%)" d="M 319.417969 342.714844 L 319.417969 367.203125 L 343.917969 367.203125 L 343.917969 342.714844 L 319.417969 342.714844 " fill-opacity="1" fill-rule="nonzero"/><path fill="rgb(100%, 100%, 100%)" d="M 294.875 342.714844 L 294.875 367.203125 L 319.351562 367.203125 L 319.351562 342.714844 L 294.875 342.714844 " fill-opacity="1" fill-rule="nonzero"/><path fill="rgb(100%, 100%, 100%)" d="M 270.417969 342.714844 L 270.417969 367.203125 L 294.902344 367.203125 L 294.902344 342.714844 L 270.417969 342.714844 " fill-opacity="1" fill-rule="nonzero"/><path fill="rgb(100%, 100%, 100%)" d="M 245.902344 342.714844 L 245.902344 367.203125 L 270.390625 367.203125 L 270.390625 342.714844 L 245.902344 342.714844 " fill-opacity="1" fill-rule="nonzero"/><path fill="rgb(97.648621%, 65.098572%, 47.059631%)" d="M 221.441406 342.714844 L 221.441406 367.203125 L 245.929688 367.203125 L 245.929688 342.714844 L 221.441406 342.714844 " fill-opacity="1" fill-rule="nonzero"/><path fill="rgb(97.648621%, 65.098572%, 47.059631%)" d="M 196.890625 342.714844 L 196.890625 367.203125 L 221.40625 367.203125 L 221.40625 342.714844 L 196.890625 342.714844 " fill-opacity="1" fill-rule="nonzero"/><path fill="rgb(29.019165%, 40.779114%, 47.059631%)" d="M 172.460938 342.714844 L 172.460938 367.203125 L 196.953125 367.203125 L 196.953125 342.714844 L 172.460938 342.714844 " fill-opacity="1" fill-rule="nonzero"/><path fill="rgb(29.019165%, 40.779114%, 47.059631%)" d="M 147.933594 342.714844 L 147.933594 367.203125 L 172.421875 367.203125 L 172.421875 342.714844 L 147.933594 342.714844 " fill-opacity="1" fill-rule="nonzero"/><path fill="rgb(29.019165%, 40.779114%, 47.059631%)" d="M 466.34375 367.152344 L 466.34375 391.632812 L 490.847656 391.632812 L 490.847656 367.152344 L 466.34375 367.152344 " fill-opacity="1" fill-rule="nonzero"/><path fill="rgb(29.019165%, 40.779114%, 47.059631%)" d="M 441.828125 367.152344 L 441.828125 391.632812 L 466.3125 391.632812 L 466.3125 367.152344 L 441.828125 367.152344 " fill-opacity="1" fill-rule="nonzero"/><path fill="rgb(97.648621%, 65.098572%, 47.059631%)" d="M 417.246094 367.085938 L 417.246094 391.699219 L 441.875 391.699219 L 441.875 367.085938 L 417.246094 367.085938 " fill-opacity="1" fill-rule="nonzero"/><path fill="rgb(97.648621%, 65.098572%, 47.059631%)" d="M 392.578125 367.085938 L 392.578125 391.699219 L 417.1875 391.699219 L 417.1875 367.085938 L 392.578125 367.085938 " fill-opacity="1" fill-rule="nonzero"/><path fill="rgb(97.648621%, 65.098572%, 47.059631%)" d="M 367.996094 367.085938 L 367.996094 391.699219 L 392.605469 391.699219 L 392.605469 367.085938 L 367.996094 367.085938 " fill-opacity="1" fill-rule="nonzero"/><path fill="rgb(97.648621%, 65.098572%, 47.059631%)" d="M 343.335938 367.085938 L 343.335938 391.699219 L 367.964844 391.699219 L 367.964844 367.085938 L 343.335938 367.085938 " fill-opacity="1" fill-rule="nonzero"/><path fill="rgb(97.648621%, 65.098572%, 47.059631%)" d="M 318.761719 367.085938 L 318.761719 391.699219 L 343.390625 391.699219 L 343.390625 367.085938 L 318.761719 367.085938 " fill-opacity="1" fill-rule="nonzero"/><path fill="rgb(97.648621%, 65.098572%, 47.059631%)" d="M 294.085938 367.085938 L 294.085938 391.699219 L 318.707031 391.699219 L 318.707031 367.085938 L 294.085938 367.085938 " fill-opacity="1" fill-rule="nonzero"/><path fill="rgb(97.648621%, 65.098572%, 47.059631%)" d="M 269.503906 367.085938 L 269.503906 391.699219 L 294.128906 391.699219 L 294.128906 367.085938 L 269.503906 367.085938 " fill-opacity="1" fill-rule="nonzero"/><path fill="rgb(97.648621%, 65.098572%, 47.059631%)" d="M 245.902344 367.152344 L 245.902344 391.632812 L 270.390625 391.632812 L 270.390625 367.152344 L 245.902344 367.152344 " fill-opacity="1" fill-rule="nonzero"/><path fill="rgb(97.648621%, 65.098572%, 47.059631%)" d="M 221.441406 367.152344 L 221.441406 391.632812 L 245.929688 391.632812 L 245.929688 367.152344 L 221.441406 367.152344 " fill-opacity="1" fill-rule="nonzero"/><path fill="rgb(97.648621%, 65.098572%, 47.059631%)" d="M 196.890625 367.152344 L 196.890625 391.632812 L 221.40625 391.632812 L 221.40625 367.152344 L 196.890625 367.152344 " fill-opacity="1" fill-rule="nonzero"/><path fill="rgb(29.019165%, 40.779114%, 47.059631%)" d="M 172.460938 367.152344 L 172.460938 391.632812 L 196.953125 391.632812 L 196.953125 367.152344 L 172.460938 367.152344 " fill-opacity="1" fill-rule="nonzero"/><path fill="rgb(29.019165%, 40.779114%, 47.059631%)" d="M 147.933594 367.152344 L 147.933594 391.632812 L 172.421875 391.632812 L 172.421875 367.152344 L 147.933594 367.152344 " fill-opacity="1" fill-rule="nonzero"/><path fill="rgb(29.019165%, 40.779114%, 47.059631%)" d="M 466.34375 391.699219 L 466.34375 416.195312 L 490.847656 416.195312 L 490.847656 391.699219 L 466.34375 391.699219 " fill-opacity="1" fill-rule="nonzero"/><path fill="rgb(29.019165%, 40.779114%, 47.059631%)" d="M 441.828125 391.699219 L 441.828125 416.195312 L 466.3125 416.195312 L 466.3125 391.699219 L 441.828125 391.699219 " fill-opacity="1" fill-rule="nonzero"/><path fill="rgb(29.019165%, 40.779114%, 47.059631%)" d="M 417.378906 391.699219 L 417.378906 416.195312 L 441.875 416.195312 L 441.875 391.699219 L 417.378906 391.699219 " fill-opacity="1" fill-rule="nonzero"/><path fill="rgb(29.019165%, 40.779114%, 47.059631%)" d="M 392.835938 391.699219 L 392.835938 416.195312 L 417.3125 416.195312 L 417.3125 391.699219 L 392.835938 391.699219 " fill-opacity="1" fill-rule="nonzero"/><path fill="rgb(29.019165%, 40.779114%, 47.059631%)" d="M 368.386719 391.699219 L 368.386719 416.195312 L 392.875 416.195312 L 392.875 391.699219 L 368.386719 391.699219 " fill-opacity="1" fill-rule="nonzero"/><path fill="rgb(29.019165%, 40.779114%, 47.059631%)" d="M 343.867188 391.699219 L 343.867188 416.195312 L 368.367188 416.195312 L 368.367188 391.699219 L 343.867188 391.699219 " fill-opacity="1" fill-rule="nonzero"/><path fill="rgb(29.019165%, 40.779114%, 47.059631%)" d="M 319.417969 391.699219 L 319.417969 416.195312 L 343.917969 416.195312 L 343.917969 391.699219 L 319.417969 391.699219 " fill-opacity="1" fill-rule="nonzero"/><path fill="rgb(29.019165%, 40.779114%, 47.059631%)" d="M 294.875 391.699219 L 294.875 416.195312 L 319.351562 416.195312 L 319.351562 391.699219 L 294.875 391.699219 " fill-opacity="1" fill-rule="nonzero"/><path fill="rgb(29.019165%, 40.779114%, 47.059631%)" d="M 270.417969 391.699219 L 270.417969 416.195312 L 294.902344 416.195312 L 294.902344 391.699219 L 270.417969 391.699219 " fill-opacity="1" fill-rule="nonzero"/><path fill="rgb(29.019165%, 40.779114%, 47.059631%)" d="M 245.902344 391.699219 L 245.902344 416.195312 L 270.390625 416.195312 L 270.390625 391.699219 L 245.902344 391.699219 " fill-opacity="1" fill-rule="nonzero"/><path fill="rgb(29.019165%, 40.779114%, 47.059631%)" d="M 221.441406 391.699219 L 221.441406 416.195312 L 245.929688 416.195312 L 245.929688 391.699219 L 221.441406 391.699219 " fill-opacity="1" fill-rule="nonzero"/><path fill="rgb(29.019165%, 40.779114%, 47.059631%)" d="M 392.835938 416.195312 L 392.835938 440.679688 L 417.3125 440.679688 L 417.3125 416.195312 L 392.835938 416.195312 " fill-opacity="1" fill-rule="nonzero"/><path fill="rgb(29.019165%, 40.779114%, 47.059631%)" d="M 368.386719 416.195312 L 368.386719 440.679688 L 392.875 440.679688 L 392.875 416.195312 L 368.386719 416.195312 " fill-opacity="1" fill-rule="nonzero"/><path fill="rgb(29.019165%, 40.779114%, 47.059631%)" d="M 343.867188 416.195312 L 343.867188 440.679688 L 368.367188 440.679688 L 368.367188 416.195312 L 343.867188 416.195312 " fill-opacity="1" fill-rule="nonzero"/><path fill="rgb(29.019165%, 40.779114%, 47.059631%)" d="M 319.417969 416.195312 L 319.417969 440.679688 L 343.917969 440.679688 L 343.917969 416.195312 L 319.417969 416.195312 " fill-opacity="1" fill-rule="nonzero"/><path fill="rgb(29.019165%, 40.779114%, 47.059631%)" d="M 294.875 416.195312 L 294.875 440.679688 L 319.351562 440.679688 L 319.351562 416.195312 L 294.875 416.195312 " fill-opacity="1" fill-rule="nonzero"/><path fill="rgb(29.019165%, 40.779114%, 47.059631%)" d="M 270.417969 416.195312 L 270.417969 440.679688 L 294.902344 440.679688 L 294.902344 416.195312 L 270.417969 416.195312 " fill-opacity="1" fill-rule="nonzero"/><path fill="rgb(29.019165%, 40.779114%, 47.059631%)" d="M 245.902344 416.195312 L 245.902344 440.679688 L 270.390625 440.679688 L 270.390625 416.195312 L 245.902344 416.195312 " fill-opacity="1" fill-rule="nonzero"/><path fill="rgb(29.019165%, 40.779114%, 47.059631%)" d="M 221.441406 416.195312 L 221.441406 440.679688 L 245.929688 440.679688 L 245.929688 416.195312 L 221.441406 416.195312 " fill-opacity="1" fill-rule="nonzero"/><path fill="rgb(29.019165%, 40.779114%, 47.059631%)" d="M 196.890625 391.699219 L 196.890625 416.195312 L 221.40625 416.195312 L 221.40625 391.699219 L 196.890625 391.699219 " fill-opacity="1" fill-rule="nonzero"/><path fill="rgb(29.019165%, 40.779114%, 47.059631%)" d="M 172.460938 391.699219 L 172.460938 416.195312 L 196.953125 416.195312 L 196.953125 391.699219 L 172.460938 391.699219 " fill-opacity="1" fill-rule="nonzero"/><path fill="rgb(29.019165%, 40.779114%, 47.059631%)" d="M 147.933594 391.699219 L 147.933594 416.195312 L 172.421875 416.195312 L 172.421875 391.699219 L 147.933594 391.699219 " fill-opacity="1" fill-rule="nonzero"/><path fill="rgb(29.019165%, 40.779114%, 47.059631%)" d="M 441.828125 440.910156 L 441.828125 465.390625 L 466.3125 465.390625 L 466.3125 440.910156 L 441.828125 440.910156 " fill-opacity="1" fill-rule="nonzero"/><path fill="rgb(29.019165%, 40.779114%, 47.059631%)" d="M 417.378906 440.910156 L 417.378906 465.390625 L 441.875 465.390625 L 441.875 440.910156 L 417.378906 440.910156 " fill-opacity="1" fill-rule="nonzero"/><path fill="rgb(29.019165%, 40.779114%, 47.059631%)" d="M 392.835938 440.910156 L 392.835938 465.390625 L 417.3125 465.390625 L 417.3125 440.910156 L 392.835938 440.910156 " fill-opacity="1" fill-rule="nonzero"/><path fill="rgb(29.019165%, 40.779114%, 47.059631%)" d="M 368.386719 440.910156 L 368.386719 465.390625 L 392.875 465.390625 L 392.875 440.910156 L 368.386719 440.910156 " fill-opacity="1" fill-rule="nonzero"/><path fill="rgb(29.019165%, 40.779114%, 47.059631%)" d="M 343.867188 440.910156 L 343.867188 465.390625 L 368.367188 465.390625 L 368.367188 440.910156 L 343.867188 440.910156 " fill-opacity="1" fill-rule="nonzero"/><path fill="rgb(29.019165%, 40.779114%, 47.059631%)" d="M 319.417969 440.910156 L 319.417969 465.390625 L 343.917969 465.390625 L 343.917969 440.910156 L 319.417969 440.910156 " fill-opacity="1" fill-rule="nonzero"/><path fill="rgb(29.019165%, 40.779114%, 47.059631%)" d="M 294.875 440.910156 L 294.875 465.390625 L 319.351562 465.390625 L 319.351562 440.910156 L 294.875 440.910156 " fill-opacity="1" fill-rule="nonzero"/><path fill="rgb(29.019165%, 40.779114%, 47.059631%)" d="M 270.417969 440.910156 L 270.417969 465.390625 L 294.902344 465.390625 L 294.902344 440.910156 L 270.417969 440.910156 " fill-opacity="1" fill-rule="nonzero"/><path fill="rgb(29.019165%, 40.779114%, 47.059631%)" d="M 245.902344 440.910156 L 245.902344 465.390625 L 270.390625 465.390625 L 270.390625 440.910156 L 245.902344 440.910156 " fill-opacity="1" fill-rule="nonzero"/><path fill="rgb(29.019165%, 40.779114%, 47.059631%)" d="M 221.441406 440.910156 L 221.441406 465.390625 L 245.929688 465.390625 L 245.929688 440.910156 L 221.441406 440.910156 " fill-opacity="1" fill-rule="nonzero"/><path fill="rgb(29.019165%, 40.779114%, 47.059631%)" d="M 196.890625 440.910156 L 196.890625 465.390625 L 221.40625 465.390625 L 221.40625 440.910156 L 196.890625 440.910156 " fill-opacity="1" fill-rule="nonzero"/><path fill="rgb(29.019165%, 40.779114%, 47.059631%)" d="M 172.460938 440.910156 L 172.460938 465.390625 L 196.953125 465.390625 L 196.953125 440.910156 L 172.460938 440.910156 " fill-opacity="1" fill-rule="nonzero"/><path fill="rgb(29.019165%, 40.779114%, 47.059631%)" d="M 148.117188 440.910156 L 148.117188 465.390625 L 172.59375 465.390625 L 172.59375 440.910156 L 148.117188 440.910156 " fill-opacity="1" fill-rule="nonzero"/><path fill="rgb(29.019165%, 40.779114%, 47.059631%)" d="M 123.628906 440.910156 L 123.628906 465.390625 L 148.117188 465.390625 L 148.117188 440.910156 L 123.628906 440.910156 " fill-opacity="1" fill-rule="nonzero"/><path fill="rgb(29.019165%, 40.779114%, 47.059631%)" d="M 99.128906 440.910156 L 99.128906 465.390625 L 123.628906 465.390625 L 123.628906 440.910156 L 99.128906 440.910156 " fill-opacity="1" fill-rule="nonzero"/><path fill="rgb(29.019165%, 40.779114%, 47.059631%)" d="M 123.628906 465.390625 L 123.628906 489.878906 L 148.117188 489.878906 L 148.117188 465.390625 L 123.628906 465.390625 " fill-opacity="1" fill-rule="nonzero"/><path fill="rgb(29.019165%, 40.779114%, 47.059631%)" d="M 148.117188 465.390625 L 148.117188 489.878906 L 172.59375 489.878906 L 172.59375 465.390625 L 148.117188 465.390625 " fill-opacity="1" fill-rule="nonzero"/><path fill="rgb(29.019165%, 40.779114%, 47.059631%)" d="M 99.128906 465.390625 L 99.128906 489.878906 L 123.628906 489.878906 L 123.628906 465.390625 L 99.128906 465.390625 " fill-opacity="1" fill-rule="nonzero"/><path fill="rgb(29.019165%, 40.779114%, 47.059631%)" d="M 123.628906 489.878906 L 123.628906 514.375 L 148.117188 514.375 L 148.117188 489.878906 L 123.628906 489.878906 " fill-opacity="1" fill-rule="nonzero"/><path fill="rgb(29.019165%, 40.779114%, 47.059631%)" d="M 99.128906 489.878906 L 99.128906 514.375 L 123.628906 514.375 L 123.628906 489.878906 L 99.128906 489.878906 " fill-opacity="1" fill-rule="nonzero"/><path fill="rgb(29.019165%, 40.779114%, 47.059631%)" d="M 123.628906 514.144531 L 123.628906 538.640625 L 148.117188 538.640625 L 148.117188 514.144531 L 123.628906 514.144531 " fill-opacity="1" fill-rule="nonzero"/><path fill="rgb(29.019165%, 40.779114%, 47.059631%)" d="M 99.128906 514.144531 L 99.128906 538.640625 L 123.628906 538.640625 L 123.628906 514.144531 L 99.128906 514.144531 " fill-opacity="1" fill-rule="nonzero"/><path fill="rgb(29.019165%, 40.779114%, 47.059631%)" d="M 123.628906 538.640625 L 123.628906 563.128906 L 148.117188 563.128906 L 148.117188 538.640625 L 123.628906 538.640625 " fill-opacity="1" fill-rule="nonzero"/><path fill="rgb(29.019165%, 40.779114%, 47.059631%)" d="M 99.128906 538.640625 L 99.128906 563.128906 L 123.628906 563.128906 L 123.628906 538.640625 L 99.128906 538.640625 " fill-opacity="1" fill-rule="nonzero"/><path fill="rgb(29.019165%, 40.779114%, 47.059631%)" d="M 123.628906 563.101562 L 123.628906 587.585938 L 148.117188 587.585938 L 148.117188 563.101562 L 123.628906 563.101562 " fill-opacity="1" fill-rule="nonzero"/><path fill="rgb(29.019165%, 40.779114%, 47.059631%)" d="M 99.128906 563.101562 L 99.128906 587.585938 L 123.628906 587.585938 L 123.628906 563.101562 L 99.128906 563.101562 " fill-opacity="1" fill-rule="nonzero"/><path fill="rgb(29.019165%, 40.779114%, 47.059631%)" d="M 148.117188 600 L 148.117188 587.367188 L 123.628906 587.367188 L 123.628906 600 L 148.117188 600 " fill-opacity="1" fill-rule="nonzero"/><g clip-path="url(#id2)"><path fill="rgb(29.019165%, 40.779114%, 47.059631%)" d="M 123.628906 600 L 123.628906 587.367188 L 99.128906 587.367188 L 99.128906 600 L 123.628906 600 " fill-opacity="1" fill-rule="nonzero"/></g><path fill="rgb(29.019165%, 40.779114%, 47.059631%)" d="M 490.761719 440.910156 L 490.761719 465.390625 L 466.257812 465.390625 L 466.257812 440.910156 L 490.761719 440.910156 " fill-opacity="1" fill-rule="nonzero"/><path fill="rgb(29.019165%, 40.779114%, 47.059631%)" d="M 515.242188 440.910156 L 515.242188 465.390625 L 490.761719 465.390625 L 490.761719 440.910156 L 515.242188 440.910156 " fill-opacity="1" fill-rule="nonzero"/><path fill="rgb(29.019165%, 40.779114%, 47.059631%)" d="M 539.726562 440.910156 L 539.726562 465.390625 L 515.242188 465.390625 L 515.242188 440.910156 L 539.726562 440.910156 " fill-opacity="1" fill-rule="nonzero"/><path fill="rgb(29.019165%, 40.779114%, 47.059631%)" d="M 515.242188 465.390625 L 515.242188 489.878906 L 490.761719 489.878906 L 490.761719 465.390625 L 515.242188 465.390625 " fill-opacity="1" fill-rule="nonzero"/><path fill="rgb(29.019165%, 40.779114%, 47.059631%)" d="M 490.761719 465.390625 L 490.761719 489.878906 L 466.257812 489.878906 L 466.257812 465.390625 L 490.761719 465.390625 " fill-opacity="1" fill-rule="nonzero"/><path fill="rgb(29.019165%, 40.779114%, 47.059631%)" d="M 539.726562 465.390625 L 539.726562 489.878906 L 515.242188 489.878906 L 515.242188 465.390625 L 539.726562 465.390625 " fill-opacity="1" fill-rule="nonzero"/><path fill="rgb(29.019165%, 40.779114%, 47.059631%)" d="M 515.242188 489.878906 L 515.242188 514.375 L 490.761719 514.375 L 490.761719 489.878906 L 515.242188 489.878906 " fill-opacity="1" fill-rule="nonzero"/><path fill="rgb(29.019165%, 40.779114%, 47.059631%)" d="M 539.726562 489.878906 L 539.726562 514.375 L 515.242188 514.375 L 515.242188 489.878906 L 539.726562 489.878906 " fill-opacity="1" fill-rule="nonzero"/><path fill="rgb(29.019165%, 40.779114%, 47.059631%)" d="M 515.242188 514.144531 L 515.242188 538.640625 L 490.761719 538.640625 L 490.761719 514.144531 L 515.242188 514.144531 " fill-opacity="1" fill-rule="nonzero"/><path fill="rgb(29.019165%, 40.779114%, 47.059631%)" d="M 539.726562 514.144531 L 539.726562 538.640625 L 515.242188 538.640625 L 515.242188 514.144531 L 539.726562 514.144531 " fill-opacity="1" fill-rule="nonzero"/><path fill="rgb(29.019165%, 40.779114%, 47.059631%)" d="M 515.242188 538.640625 L 515.242188 563.128906 L 490.761719 563.128906 L 490.761719 538.640625 L 515.242188 538.640625 " fill-opacity="1" fill-rule="nonzero"/><path fill="rgb(29.019165%, 40.779114%, 47.059631%)" d="M 539.726562 538.640625 L 539.726562 563.128906 L 515.242188 563.128906 L 515.242188 538.640625 L 539.726562 538.640625 " fill-opacity="1" fill-rule="nonzero"/><path fill="rgb(29.019165%, 40.779114%, 47.059631%)" d="M 515.242188 563.101562 L 515.242188 587.585938 L 490.761719 587.585938 L 490.761719 563.101562 L 515.242188 563.101562 " fill-opacity="1" fill-rule="nonzero"/><path fill="rgb(29.019165%, 40.779114%, 47.059631%)" d="M 539.726562 563.101562 L 539.726562 587.585938 L 515.242188 587.585938 L 515.242188 563.101562 L 539.726562 563.101562 " fill-opacity="1" fill-rule="nonzero"/><path fill="rgb(29.019165%, 40.779114%, 47.059631%)" d="M 515.242188 600 L 515.242188 587.367188 L 490.761719 587.367188 L 490.761719 600 L 515.242188 600 " fill-opacity="1" fill-rule="nonzero"/><path fill="rgb(29.019165%, 40.779114%, 47.059631%)" d="M 539.726562 600 L 539.726562 587.367188 L 515.242188 587.367188 L 515.242188 600 L 539.726562 600 " fill-opacity="1" fill-rule="nonzero"/><path fill="rgb(29.019165%, 40.779114%, 47.059631%)" d="M 441.828125 465.390625 L 441.828125 489.878906 L 466.3125 489.878906 L 466.3125 465.390625 L 441.828125 465.390625 " fill-opacity="1" fill-rule="nonzero"/><path fill="rgb(29.019165%, 40.779114%, 47.059631%)" d="M 417.378906 465.390625 L 417.378906 489.878906 L 441.875 489.878906 L 441.875 465.390625 L 417.378906 465.390625 " fill-opacity="1" fill-rule="nonzero"/><path fill="rgb(29.019165%, 40.779114%, 47.059631%)" d="M 392.835938 465.390625 L 392.835938 489.878906 L 417.3125 489.878906 L 417.3125 465.390625 L 392.835938 465.390625 " fill-opacity="1" fill-rule="nonzero"/><path fill="rgb(29.019165%, 40.779114%, 47.059631%)" d="M 368.386719 465.390625 L 368.386719 489.878906 L 392.875 489.878906 L 392.875 465.390625 L 368.386719 465.390625 " fill-opacity="1" fill-rule="nonzero"/><path fill="rgb(29.019165%, 40.779114%, 47.059631%)" d="M 343.867188 465.390625 L 343.867188 489.878906 L 368.367188 489.878906 L 368.367188 465.390625 L 343.867188 465.390625 " fill-opacity="1" fill-rule="nonzero"/><path fill="rgb(29.019165%, 40.779114%, 47.059631%)" d="M 319.417969 465.390625 L 319.417969 489.878906 L 343.917969 489.878906 L 343.917969 465.390625 L 319.417969 465.390625 " fill-opacity="1" fill-rule="nonzero"/><path fill="rgb(29.019165%, 40.779114%, 47.059631%)" d="M 294.875 465.390625 L 294.875 489.878906 L 319.351562 489.878906 L 319.351562 465.390625 L 294.875 465.390625 " fill-opacity="1" fill-rule="nonzero"/><path fill="rgb(29.019165%, 40.779114%, 47.059631%)" d="M 270.417969 465.390625 L 270.417969 489.878906 L 294.902344 489.878906 L 294.902344 465.390625 L 270.417969 465.390625 " fill-opacity="1" fill-rule="nonzero"/><path fill="rgb(29.019165%, 40.779114%, 47.059631%)" d="M 245.902344 465.390625 L 245.902344 489.878906 L 270.390625 489.878906 L 270.390625 465.390625 L 245.902344 465.390625 " fill-opacity="1" fill-rule="nonzero"/><path fill="rgb(29.019165%, 40.779114%, 47.059631%)" d="M 221.441406 465.390625 L 221.441406 489.878906 L 245.929688 489.878906 L 245.929688 465.390625 L 221.441406 465.390625 " fill-opacity="1" fill-rule="nonzero"/><path fill="rgb(29.019165%, 40.779114%, 47.059631%)" d="M 196.890625 465.390625 L 196.890625 489.878906 L 221.40625 489.878906 L 221.40625 465.390625 L 196.890625 465.390625 " fill-opacity="1" fill-rule="nonzero"/><path fill="rgb(29.019165%, 40.779114%, 47.059631%)" d="M 172.460938 465.390625 L 172.460938 489.878906 L 196.953125 489.878906 L 196.953125 465.390625 L 172.460938 465.390625 " fill-opacity="1" fill-rule="nonzero"/><path fill="rgb(29.019165%, 40.779114%, 47.059631%)" d="M 441.828125 489.855469 L 441.828125 514.351562 L 466.3125 514.351562 L 466.3125 489.855469 L 441.828125 489.855469 " fill-opacity="1" fill-rule="nonzero"/><path fill="rgb(29.019165%, 40.779114%, 47.059631%)" d="M 417.378906 489.855469 L 417.378906 514.351562 L 441.875 514.351562 L 441.875 489.855469 L 417.378906 489.855469 " fill-opacity="1" fill-rule="nonzero"/><path fill="rgb(29.019165%, 40.779114%, 47.059631%)" d="M 392.835938 489.855469 L 392.835938 514.351562 L 417.3125 514.351562 L 417.3125 489.855469 L 392.835938 489.855469 " fill-opacity="1" fill-rule="nonzero"/><path fill="rgb(29.019165%, 40.779114%, 47.059631%)" d="M 368.386719 489.855469 L 368.386719 514.351562 L 392.875 514.351562 L 392.875 489.855469 L 368.386719 489.855469 " fill-opacity="1" fill-rule="nonzero"/><path fill="rgb(29.019165%, 40.779114%, 47.059631%)" d="M 343.867188 489.855469 L 343.867188 514.351562 L 368.367188 514.351562 L 368.367188 489.855469 L 343.867188 489.855469 " fill-opacity="1" fill-rule="nonzero"/><path fill="rgb(29.019165%, 40.779114%, 47.059631%)" d="M 319.417969 489.855469 L 319.417969 514.351562 L 343.917969 514.351562 L 343.917969 489.855469 L 319.417969 489.855469 " fill-opacity="1" fill-rule="nonzero"/><path fill="rgb(29.019165%, 40.779114%, 47.059631%)" d="M 294.875 489.855469 L 294.875 514.351562 L 319.351562 514.351562 L 319.351562 489.855469 L 294.875 489.855469 " fill-opacity="1" fill-rule="nonzero"/><path fill="rgb(29.019165%, 40.779114%, 47.059631%)" d="M 270.417969 489.855469 L 270.417969 514.351562 L 294.902344 514.351562 L 294.902344 489.855469 L 270.417969 489.855469 " fill-opacity="1" fill-rule="nonzero"/><path fill="rgb(29.019165%, 40.779114%, 47.059631%)" d="M 245.902344 489.855469 L 245.902344 514.351562 L 270.390625 514.351562 L 270.390625 489.855469 L 245.902344 489.855469 " fill-opacity="1" fill-rule="nonzero"/><path fill="rgb(29.019165%, 40.779114%, 47.059631%)" d="M 221.441406 489.855469 L 221.441406 514.351562 L 245.929688 514.351562 L 245.929688 489.855469 L 221.441406 489.855469 " fill-opacity="1" fill-rule="nonzero"/><path fill="rgb(29.019165%, 40.779114%, 47.059631%)" d="M 196.890625 489.855469 L 196.890625 514.351562 L 221.40625 514.351562 L 221.40625 489.855469 L 196.890625 489.855469 " fill-opacity="1" fill-rule="nonzero"/><path fill="rgb(29.019165%, 40.779114%, 47.059631%)" d="M 172.460938 489.855469 L 172.460938 514.351562 L 196.953125 514.351562 L 196.953125 489.855469 L 172.460938 489.855469 " fill-opacity="1" fill-rule="nonzero"/><path fill="rgb(29.019165%, 40.779114%, 47.059631%)" d="M 441.828125 514.351562 L 441.828125 538.832031 L 466.3125 538.832031 L 466.3125 514.351562 L 441.828125 514.351562 " fill-opacity="1" fill-rule="nonzero"/><path fill="rgb(29.019165%, 40.779114%, 47.059631%)" d="M 417.378906 514.351562 L 417.378906 538.832031 L 441.875 538.832031 L 441.875 514.351562 L 417.378906 514.351562 " fill-opacity="1" fill-rule="nonzero"/><path fill="rgb(29.019165%, 40.779114%, 47.059631%)" d="M 392.835938 514.351562 L 392.835938 538.832031 L 417.3125 538.832031 L 417.3125 514.351562 L 392.835938 514.351562 " fill-opacity="1" fill-rule="nonzero"/><path fill="rgb(29.019165%, 40.779114%, 47.059631%)" d="M 368.386719 514.351562 L 368.386719 538.832031 L 392.875 538.832031 L 392.875 514.351562 L 368.386719 514.351562 " fill-opacity="1" fill-rule="nonzero"/><path fill="rgb(29.019165%, 40.779114%, 47.059631%)" d="M 343.867188 514.351562 L 343.867188 538.832031 L 368.367188 538.832031 L 368.367188 514.351562 L 343.867188 514.351562 " fill-opacity="1" fill-rule="nonzero"/><path fill="rgb(29.019165%, 40.779114%, 47.059631%)" d="M 319.417969 514.351562 L 319.417969 538.832031 L 343.917969 538.832031 L 343.917969 514.351562 L 319.417969 514.351562 " fill-opacity="1" fill-rule="nonzero"/><path fill="rgb(29.019165%, 40.779114%, 47.059631%)" d="M 294.875 514.351562 L 294.875 538.832031 L 319.351562 538.832031 L 319.351562 514.351562 L 294.875 514.351562 " fill-opacity="1" fill-rule="nonzero"/><path fill="rgb(29.019165%, 40.779114%, 47.059631%)" d="M 270.417969 514.351562 L 270.417969 538.832031 L 294.902344 538.832031 L 294.902344 514.351562 L 270.417969 514.351562 " fill-opacity="1" fill-rule="nonzero"/><path fill="rgb(29.019165%, 40.779114%, 47.059631%)" d="M 245.902344 514.351562 L 245.902344 538.832031 L 270.390625 538.832031 L 270.390625 514.351562 L 245.902344 514.351562 " fill-opacity="1" fill-rule="nonzero"/><path fill="rgb(29.019165%, 40.779114%, 47.059631%)" d="M 221.441406 514.351562 L 221.441406 538.832031 L 245.929688 538.832031 L 245.929688 514.351562 L 221.441406 514.351562 " fill-opacity="1" fill-rule="nonzero"/><path fill="rgb(29.019165%, 40.779114%, 47.059631%)" d="M 196.890625 514.351562 L 196.890625 538.832031 L 221.40625 538.832031 L 221.40625 514.351562 L 196.890625 514.351562 " fill-opacity="1" fill-rule="nonzero"/><path fill="rgb(29.019165%, 40.779114%, 47.059631%)" d="M 172.460938 514.351562 L 172.460938 538.832031 L 196.953125 538.832031 L 196.953125 514.351562 L 172.460938 514.351562 " fill-opacity="1" fill-rule="nonzero"/><path fill="rgb(29.019165%, 40.779114%, 47.059631%)" d="M 441.828125 538.78125 L 441.828125 563.273438 L 466.3125 563.273438 L 466.3125 538.78125 L 441.828125 538.78125 " fill-opacity="1" fill-rule="nonzero"/><path fill="rgb(29.019165%, 40.779114%, 47.059631%)" d="M 417.378906 538.78125 L 417.378906 563.273438 L 441.875 563.273438 L 441.875 538.78125 L 417.378906 538.78125 " fill-opacity="1" fill-rule="nonzero"/><path fill="rgb(29.019165%, 40.779114%, 47.059631%)" d="M 392.835938 538.78125 L 392.835938 563.273438 L 417.3125 563.273438 L 417.3125 538.78125 L 392.835938 538.78125 " fill-opacity="1" fill-rule="nonzero"/><path fill="rgb(29.019165%, 40.779114%, 47.059631%)" d="M 368.386719 538.78125 L 368.386719 563.273438 L 392.875 563.273438 L 392.875 538.78125 L 368.386719 538.78125 " fill-opacity="1" fill-rule="nonzero"/><path fill="rgb(29.019165%, 40.779114%, 47.059631%)" d="M 343.867188 538.78125 L 343.867188 563.273438 L 368.367188 563.273438 L 368.367188 538.78125 L 343.867188 538.78125 " fill-opacity="1" fill-rule="nonzero"/><path fill="rgb(29.019165%, 40.779114%, 47.059631%)" d="M 319.417969 538.78125 L 319.417969 563.273438 L 343.917969 563.273438 L 343.917969 538.78125 L 319.417969 538.78125 " fill-opacity="1" fill-rule="nonzero"/><path fill="rgb(29.019165%, 40.779114%, 47.059631%)" d="M 294.875 538.78125 L 294.875 563.273438 L 319.351562 563.273438 L 319.351562 538.78125 L 294.875 538.78125 " fill-opacity="1" fill-rule="nonzero"/><path fill="rgb(29.019165%, 40.779114%, 47.059631%)" d="M 270.417969 538.78125 L 270.417969 563.273438 L 294.902344 563.273438 L 294.902344 538.78125 L 270.417969 538.78125 " fill-opacity="1" fill-rule="nonzero"/><path fill="rgb(29.019165%, 40.779114%, 47.059631%)" d="M 245.902344 538.78125 L 245.902344 563.273438 L 270.390625 563.273438 L 270.390625 538.78125 L 245.902344 538.78125 " fill-opacity="1" fill-rule="nonzero"/><path fill="rgb(29.019165%, 40.779114%, 47.059631%)" d="M 221.441406 538.78125 L 221.441406 563.273438 L 245.929688 563.273438 L 245.929688 538.78125 L 221.441406 538.78125 " fill-opacity="1" fill-rule="nonzero"/><path fill="rgb(29.019165%, 40.779114%, 47.059631%)" d="M 196.890625 538.78125 L 196.890625 563.273438 L 221.40625 563.273438 L 221.40625 538.78125 L 196.890625 538.78125 " fill-opacity="1" fill-rule="nonzero"/><path fill="rgb(29.019165%, 40.779114%, 47.059631%)" d="M 172.460938 538.78125 L 172.460938 563.273438 L 196.953125 563.273438 L 196.953125 538.78125 L 172.460938 538.78125 " fill-opacity="1" fill-rule="nonzero"/><path fill="rgb(29.019165%, 40.779114%, 47.059631%)" d="M 441.828125 563.273438 L 441.828125 587.765625 L 466.3125 587.765625 L 466.3125 563.273438 L 441.828125 563.273438 " fill-opacity="1" fill-rule="nonzero"/><path fill="rgb(29.019165%, 40.779114%, 47.059631%)" d="M 417.378906 563.273438 L 417.378906 587.765625 L 441.875 587.765625 L 441.875 563.273438 L 417.378906 563.273438 " fill-opacity="1" fill-rule="nonzero"/><path fill="rgb(29.019165%, 40.779114%, 47.059631%)" d="M 392.835938 563.273438 L 392.835938 587.765625 L 417.3125 587.765625 L 417.3125 563.273438 L 392.835938 563.273438 " fill-opacity="1" fill-rule="nonzero"/><path fill="rgb(29.019165%, 40.779114%, 47.059631%)" d="M 368.386719 563.273438 L 368.386719 587.765625 L 392.875 587.765625 L 392.875 563.273438 L 368.386719 563.273438 " fill-opacity="1" fill-rule="nonzero"/><path fill="rgb(29.019165%, 40.779114%, 47.059631%)" d="M 343.867188 563.273438 L 343.867188 587.765625 L 368.367188 587.765625 L 368.367188 563.273438 L 343.867188 563.273438 " fill-opacity="1" fill-rule="nonzero"/><path fill="rgb(29.019165%, 40.779114%, 47.059631%)" d="M 319.417969 563.273438 L 319.417969 587.765625 L 343.917969 587.765625 L 343.917969 563.273438 L 319.417969 563.273438 " fill-opacity="1" fill-rule="nonzero"/><path fill="rgb(29.019165%, 40.779114%, 47.059631%)" d="M 294.875 563.273438 L 294.875 587.765625 L 319.351562 587.765625 L 319.351562 563.273438 L 294.875 563.273438 " fill-opacity="1" fill-rule="nonzero"/><path fill="rgb(29.019165%, 40.779114%, 47.059631%)" d="M 270.417969 563.273438 L 270.417969 587.765625 L 294.902344 587.765625 L 294.902344 563.273438 L 270.417969 563.273438 " fill-opacity="1" fill-rule="nonzero"/><path fill="rgb(29.019165%, 40.779114%, 47.059631%)" d="M 245.902344 563.273438 L 245.902344 587.765625 L 270.390625 587.765625 L 270.390625 563.273438 L 245.902344 563.273438 " fill-opacity="1" fill-rule="nonzero"/><path fill="rgb(29.019165%, 40.779114%, 47.059631%)" d="M 221.441406 563.273438 L 221.441406 587.765625 L 245.929688 587.765625 L 245.929688 563.273438 L 221.441406 563.273438 " fill-opacity="1" fill-rule="nonzero"/><path fill="rgb(29.019165%, 40.779114%, 47.059631%)" d="M 196.890625 563.273438 L 196.890625 587.765625 L 221.40625 587.765625 L 221.40625 563.273438 L 196.890625 563.273438 " fill-opacity="1" fill-rule="nonzero"/><path fill="rgb(29.019165%, 40.779114%, 47.059631%)" d="M 172.460938 563.273438 L 172.460938 587.765625 L 196.953125 587.765625 L 196.953125 563.273438 L 172.460938 563.273438 " fill-opacity="1" fill-rule="nonzero"/><path fill="rgb(29.019165%, 40.779114%, 47.059631%)" d="M 466.3125 600 L 466.3125 587.738281 L 441.828125 587.738281 L 441.828125 600 L 466.3125 600 " fill-opacity="1" fill-rule="nonzero"/><path fill="rgb(29.019165%, 40.779114%, 47.059631%)" d="M 441.875 600 L 441.875 587.738281 L 417.378906 587.738281 L 417.378906 600 L 441.875 600 " fill-opacity="1" fill-rule="nonzero"/><path fill="rgb(29.019165%, 40.779114%, 47.059631%)" d="M 417.3125 600 L 417.3125 587.738281 L 392.835938 587.738281 L 392.835938 600 L 417.3125 600 " fill-opacity="1" fill-rule="nonzero"/><path fill="rgb(29.019165%, 40.779114%, 47.059631%)" d="M 392.875 600 L 392.875 587.738281 L 368.386719 587.738281 L 368.386719 600 L 392.875 600 " fill-opacity="1" fill-rule="nonzero"/><path fill="rgb(29.019165%, 40.779114%, 47.059631%)" d="M 368.367188 600 L 368.367188 587.738281 L 343.867188 587.738281 L 343.867188 600 L 368.367188 600 " fill-opacity="1" fill-rule="nonzero"/><g clip-path="url(#id3)"><path fill="rgb(29.019165%, 40.779114%, 47.059631%)" d="M 343.917969 600 L 343.917969 587.738281 L 319.417969 587.738281 L 319.417969 600 L 343.917969 600 " fill-opacity="1" fill-rule="nonzero"/></g><g clip-path="url(#id4)"><path fill="rgb(29.019165%, 40.779114%, 47.059631%)" d="M 319.351562 600 L 319.351562 587.738281 L 294.875 587.738281 L 294.875 600 L 319.351562 600 " fill-opacity="1" fill-rule="nonzero"/></g><path fill="rgb(29.019165%, 40.779114%, 47.059631%)" d="M 294.902344 600 L 294.902344 587.738281 L 270.417969 587.738281 L 270.417969 600 L 294.902344 600 " fill-opacity="1" fill-rule="nonzero"/><g clip-path="url(#id5)"><path fill="rgb(29.019165%, 40.779114%, 47.059631%)" d="M 270.390625 600 L 270.390625 587.738281 L 245.902344 587.738281 L 245.902344 600 L 270.390625 600 " fill-opacity="1" fill-rule="nonzero"/></g><path fill="rgb(29.019165%, 40.779114%, 47.059631%)" d="M 245.929688 600 L 245.929688 587.738281 L 221.441406 587.738281 L 221.441406 600 L 245.929688 600 " fill-opacity="1" fill-rule="nonzero"/><g clip-path="url(#id6)"><path fill="rgb(29.019165%, 40.779114%, 47.059631%)" d="M 221.40625 600 L 221.40625 587.738281 L 196.890625 587.738281 L 196.890625 600 L 221.40625 600 " fill-opacity="1" fill-rule="nonzero"/></g><path fill="rgb(29.019165%, 40.779114%, 47.059631%)" d="M 196.953125 600 L 196.953125 587.738281 L 172.460938 587.738281 L 172.460938 600 L 196.953125 600 " fill-opacity="1" fill-rule="nonzero"/><path fill="rgb(43.919373%, 56.469727%, 62.348938%)" d="M 466.332031 244.859375 L 466.332031 269.347656 L 490.824219 269.347656 L 490.824219 244.859375 L 466.332031 244.859375 " fill-opacity="1" fill-rule="nonzero"/><path fill="rgb(43.919373%, 56.469727%, 62.348938%)" d="M 454.082031 220.324219 L 454.082031 244.8125 L 478.578125 244.8125 L 478.578125 220.324219 L 454.082031 220.324219 " fill-opacity="1" fill-rule="nonzero"/><path fill="rgb(43.919373%, 56.469727%, 62.348938%)" d="M 441.894531 195.925781 L 441.894531 220.414062 L 466.398438 220.414062 L 466.398438 195.925781 L 441.894531 195.925781 " fill-opacity="1" fill-rule="nonzero"/><path fill="rgb(43.919373%, 56.469727%, 62.348938%)" d="M 429.144531 171.382812 L 429.144531 195.886719 L 453.625 195.886719 L 453.625 171.382812 L 429.144531 171.382812 " fill-opacity="1" fill-rule="nonzero"/><path fill="rgb(43.919373%, 56.469727%, 62.348938%)" d="M 416.425781 146.914062 L 416.425781 171.398438 L 440.929688 171.398438 L 440.929688 146.914062 L 416.425781 146.914062 " fill-opacity="1" fill-rule="nonzero"/><path fill="rgb(43.919373%, 56.469727%, 62.348938%)" d="M 404.039062 122.40625 L 404.039062 146.902344 L 428.535156 146.902344 L 428.535156 122.40625 L 404.039062 122.40625 " fill-opacity="1" fill-rule="nonzero"/><path fill="rgb(29.019165%, 40.779114%, 47.059631%)" d="M 172.515625 244.859375 L 172.515625 269.347656 L 148.019531 269.347656 L 148.019531 244.859375 L 172.515625 244.859375 " fill-opacity="1" fill-rule="nonzero"/><path fill="rgb(29.019165%, 40.779114%, 47.059631%)" d="M 123.453125 269.355469 L 123.453125 293.84375 L 147.933594 293.84375 L 147.933594 269.355469 L 123.453125 269.355469 " fill-opacity="1" fill-rule="nonzero"/><path fill="rgb(29.019165%, 40.779114%, 47.059631%)" d="M 147.933594 244.859375 L 147.933594 269.347656 L 123.453125 269.347656 L 123.453125 244.859375 L 147.933594 244.859375 " fill-opacity="1" fill-rule="nonzero"/><path fill="rgb(43.919373%, 56.469727%, 62.348938%)" d="M 490.820312 269.355469 L 490.820312 293.84375 L 515.289062 293.84375 L 515.289062 269.355469 L 490.820312 269.355469 " fill-opacity="1" fill-rule="nonzero"/><path fill="rgb(43.919373%, 56.469727%, 62.348938%)" d="M 515.289062 244.859375 L 515.289062 269.347656 L 490.820312 269.347656 L 490.820312 244.859375 L 515.289062 244.859375 " fill-opacity="1" fill-rule="nonzero"/><path fill="rgb(29.019165%, 40.779114%, 47.059631%)" d="M 184.757812 220.324219 L 184.757812 244.8125 L 160.265625 244.8125 L 160.265625 220.324219 L 184.757812 220.324219 " fill-opacity="1" fill-rule="nonzero"/><path fill="rgb(29.019165%, 40.779114%, 47.059631%)" d="M 196.953125 195.925781 L 196.953125 220.414062 L 172.460938 220.414062 L 172.460938 195.925781 L 196.953125 195.925781 " fill-opacity="1" fill-rule="nonzero"/><path fill="rgb(29.019165%, 40.779114%, 47.059631%)" d="M 209.734375 171.382812 L 209.734375 195.886719 L 185.21875 195.886719 L 185.21875 171.382812 L 209.734375 171.382812 " fill-opacity="1" fill-rule="nonzero"/><path fill="rgb(29.019165%, 40.779114%, 47.059631%)" d="M 221.5 146.914062 L 221.5 171.398438 L 196.996094 171.398438 L 196.996094 146.914062 L 221.5 146.914062 " fill-opacity="1" fill-rule="nonzero"/><path fill="rgb(29.019165%, 40.779114%, 47.059631%)" d="M 234.800781 122.40625 L 234.800781 146.902344 L 210.308594 146.902344 L 210.308594 122.40625 L 234.800781 122.40625 " fill-opacity="1" fill-rule="nonzero"/><path fill="rgb(94.509888%, 27.059937%, 15.689087%)" d="M 392.835938 97.917969 L 392.835938 122.40625 L 417.3125 122.40625 L 417.3125 97.917969 L 392.835938 97.917969 " fill-opacity="1" fill-rule="nonzero"/><path fill="rgb(94.509888%, 27.059937%, 15.689087%)" d="M 368.386719 97.917969 L 368.386719 122.40625 L 392.875 122.40625 L 392.875 97.917969 L 368.386719 97.917969 " fill-opacity="1" fill-rule="nonzero"/><path fill="rgb(71.369934%, 7.839966%, 10.198975%)" d="M 343.867188 97.917969 L 343.867188 122.40625 L 368.367188 122.40625 L 368.367188 97.917969 L 343.867188 97.917969 " fill-opacity="1" fill-rule="nonzero"/><path fill="rgb(71.369934%, 7.839966%, 10.198975%)" d="M 319.417969 97.917969 L 319.417969 122.40625 L 343.917969 122.40625 L 343.917969 97.917969 L 319.417969 97.917969 " fill-opacity="1" fill-rule="nonzero"/><path fill="rgb(71.369934%, 7.839966%, 10.198975%)" d="M 294.875 97.917969 L 294.875 122.40625 L 319.351562 122.40625 L 319.351562 97.917969 L 294.875 97.917969 " fill-opacity="1" fill-rule="nonzero"/><path fill="rgb(71.369934%, 7.839966%, 10.198975%)" d="M 270.417969 97.917969 L 270.417969 122.40625 L 294.902344 122.40625 L 294.902344 97.917969 L 270.417969 97.917969 " fill-opacity="1" fill-rule="nonzero"/><path fill="rgb(71.369934%, 7.839966%, 10.198975%)" d="M 245.902344 97.917969 L 245.902344 122.40625 L 270.390625 122.40625 L 270.390625 97.917969 L 245.902344 97.917969 " fill-opacity="1" fill-rule="nonzero"/><path fill="rgb(71.369934%, 7.839966%, 10.198975%)" d="M 221.441406 97.917969 L 221.441406 122.40625 L 245.929688 122.40625 L 245.929688 97.917969 L 221.441406 97.917969 " fill-opacity="1" fill-rule="nonzero"/><path fill="rgb(71.369934%, 7.839966%, 10.198975%)" d="M 196.890625 97.917969 L 196.890625 122.40625 L 221.386719 122.40625 L 221.386719 97.917969 L 196.890625 97.917969 " fill-opacity="1" fill-rule="nonzero"/><path fill="rgb(92.939758%, 10.978699%, 14.118958%)" d="M 172.394531 122.292969 L 172.394531 146.789062 L 196.878906 146.789062 L 196.878906 122.292969 L 172.394531 122.292969 " fill-opacity="1" fill-rule="nonzero"/><path fill="rgb(71.369934%, 7.839966%, 10.198975%)" d="M 172.394531 146.902344 L 172.394531 171.382812 L 196.878906 171.382812 L 196.878906 146.902344 L 172.394531 146.902344 " fill-opacity="1" fill-rule="nonzero"/><path fill="rgb(92.939758%, 10.978699%, 14.118958%)" d="M 147.90625 171.382812 L 147.90625 195.875 L 172.394531 195.875 L 172.394531 171.382812 L 147.90625 171.382812 " fill-opacity="1" fill-rule="nonzero"/><path fill="rgb(71.369934%, 7.839966%, 10.198975%)" d="M 123.40625 220.324219 L 123.40625 244.820312 L 147.90625 244.820312 L 147.90625 220.324219 L 123.40625 220.324219 " fill-opacity="1" fill-rule="nonzero"/><path fill="rgb(94.509888%, 27.059937%, 15.689087%)" d="M 368.453125 73.515625 L 368.453125 98.003906 L 392.941406 98.003906 L 392.941406 73.515625 L 368.453125 73.515625 " fill-opacity="1" fill-rule="nonzero"/><path fill="rgb(100%, 100%, 100%)" d="M 343.984375 73.515625 L 343.984375 98.003906 L 368.480469 98.003906 L 368.480469 73.515625 L 343.984375 73.515625 " fill-opacity="1" fill-rule="nonzero"/><path fill="rgb(92.939758%, 10.978699%, 14.118958%)" d="M 319.46875 73.515625 L 319.46875 98.003906 L 343.957031 98.003906 L 343.957031 73.515625 L 319.46875 73.515625 " fill-opacity="1" fill-rule="nonzero"/><path fill="rgb(92.939758%, 10.978699%, 14.118958%)" d="M 295.007812 73.515625 L 295.007812 98.003906 L 319.503906 98.003906 L 319.503906 73.515625 L 295.007812 73.515625 " fill-opacity="1" fill-rule="nonzero"/><path fill="rgb(92.939758%, 10.978699%, 14.118958%)" d="M 270.476562 73.515625 L 270.476562 98.003906 L 294.945312 98.003906 L 294.945312 73.515625 L 270.476562 73.515625 " fill-opacity="1" fill-rule="nonzero"/><path fill="rgb(92.939758%, 10.978699%, 14.118958%)" d="M 246.027344 73.515625 L 246.027344 98.003906 L 270.511719 98.003906 L 270.511719 73.515625 L 246.027344 73.515625 " fill-opacity="1" fill-rule="nonzero"/><path fill="rgb(92.939758%, 10.978699%, 14.118958%)" d="M 221.511719 73.515625 L 221.511719 98.003906 L 245.996094 98.003906 L 245.996094 73.515625 L 221.511719 73.515625 " fill-opacity="1" fill-rule="nonzero"/><path fill="rgb(92.939758%, 10.978699%, 14.118958%)" d="M 196.890625 73.515625 L 196.890625 98.003906 L 221.386719 98.003906 L 221.386719 73.515625 L 196.890625 73.515625 " fill-opacity="1" fill-rule="nonzero"/><path fill="rgb(94.509888%, 27.059937%, 15.689087%)" d="M 343.753906 49.011719 L 343.753906 73.515625 L 368.253906 73.515625 L 368.253906 49.011719 L 343.753906 49.011719 " fill-opacity="1" fill-rule="nonzero"/><path fill="rgb(100%, 100%, 100%)" d="M 319.246094 49.011719 L 319.246094 73.515625 L 343.738281 73.515625 L 343.738281 49.011719 L 319.246094 49.011719 " fill-opacity="1" fill-rule="nonzero"/><path fill="rgb(92.939758%, 10.978699%, 14.118958%)" d="M 294.78125 49.011719 L 294.78125 73.515625 L 319.289062 73.515625 L 319.289062 49.011719 L 294.78125 49.011719 " fill-opacity="1" fill-rule="nonzero"/><path fill="rgb(92.939758%, 10.978699%, 14.118958%)" d="M 270.238281 49.011719 L 270.238281 73.515625 L 294.734375 73.515625 L 294.734375 49.011719 L 270.238281 49.011719 " fill-opacity="1" fill-rule="nonzero"/><path fill="rgb(92.939758%, 10.978699%, 14.118958%)" d="M 245.789062 49.011719 L 245.789062 73.515625 L 270.273438 73.515625 L 270.273438 49.011719 L 245.789062 49.011719 " fill-opacity="1" fill-rule="nonzero"/><path fill="rgb(92.939758%, 10.978699%, 14.118958%)" d="M 221.28125 49.011719 L 221.28125 73.515625 L 245.777344 73.515625 L 245.777344 49.011719 L 221.28125 49.011719 " fill-opacity="1" fill-rule="nonzero"/><path fill="rgb(92.939758%, 10.978699%, 14.118958%)" d="M 196.890625 49.011719 L 196.890625 73.515625 L 221.386719 73.515625 L 221.386719 49.011719 L 196.890625 49.011719 " fill-opacity="1" fill-rule="nonzero"/><path fill="rgb(92.939758%, 10.978699%, 14.118958%)" d="M 172.394531 97.917969 L 172.394531 122.40625 L 196.878906 122.40625 L 196.878906 97.917969 L 172.394531 97.917969 " fill-opacity="1" fill-rule="nonzero"/><path fill="rgb(92.939758%, 10.978699%, 14.118958%)" d="M 172.394531 73.515625 L 172.394531 98.003906 L 196.878906 98.003906 L 196.878906 73.515625 L 172.394531 73.515625 " fill-opacity="1" fill-rule="nonzero"/><path fill="rgb(92.939758%, 10.978699%, 14.118958%)" d="M 147.90625 122.292969 L 147.90625 146.789062 L 172.394531 146.789062 L 172.394531 122.292969 L 147.90625 122.292969 " fill-opacity="1" fill-rule="nonzero"/><path fill="rgb(92.939758%, 10.978699%, 14.118958%)" d="M 147.90625 146.902344 L 147.90625 171.382812 L 172.394531 171.382812 L 172.394531 146.902344 L 147.90625 146.902344 " fill-opacity="1" fill-rule="nonzero"/><path fill="rgb(92.939758%, 10.978699%, 14.118958%)" d="M 147.90625 97.917969 L 147.90625 122.40625 L 172.394531 122.40625 L 172.394531 97.917969 L 147.90625 97.917969 " fill-opacity="1" fill-rule="nonzero"/><path fill="rgb(92.939758%, 10.978699%, 14.118958%)" d="M 123.40625 171.382812 L 123.40625 195.875 L 147.90625 195.875 L 147.90625 171.382812 L 123.40625 171.382812 " fill-opacity="1" fill-rule="nonzero"/><path fill="rgb(71.369934%, 7.839966%, 10.198975%)" d="M 123.40625 195.875 L 123.40625 220.375 L 147.90625 220.375 L 147.90625 195.875 L 123.40625 195.875 " fill-opacity="1" fill-rule="nonzero"/><path fill="rgb(92.939758%, 10.978699%, 14.118958%)" d="M 123.40625 122.292969 L 123.40625 146.789062 L 147.90625 146.789062 L 147.90625 122.292969 L 123.40625 122.292969 " fill-opacity="1" fill-rule="nonzero"/><path fill="rgb(92.939758%, 10.978699%, 14.118958%)" d="M 123.40625 146.902344 L 123.40625 171.382812 L 147.90625 171.382812 L 147.90625 146.902344 L 123.40625 146.902344 " fill-opacity="1" fill-rule="nonzero"/><path fill="rgb(92.939758%, 10.978699%, 14.118958%)" d="M 98.871094 122.292969 L 98.871094 146.789062 L 123.359375 146.789062 L 123.359375 122.292969 L 98.871094 122.292969 " fill-opacity="1" fill-rule="nonzero"/><path fill="rgb(92.939758%, 10.978699%, 14.118958%)" d="M 98.871094 146.902344 L 98.871094 171.382812 L 123.359375 171.382812 L 123.359375 146.902344 L 98.871094 146.902344 " fill-opacity="1" fill-rule="nonzero"/><path fill="rgb(92.939758%, 10.978699%, 14.118958%)" d="M 123.40625 97.917969 L 123.40625 122.40625 L 147.90625 122.40625 L 147.90625 97.917969 L 123.40625 97.917969 " fill-opacity="1" fill-rule="nonzero"/><path fill="rgb(92.939758%, 10.978699%, 14.118958%)" d="M 147.90625 73.515625 L 147.90625 98.003906 L 172.394531 98.003906 L 172.394531 73.515625 L 147.90625 73.515625 " fill-opacity="1" fill-rule="nonzero"/><path fill="rgb(92.939758%, 10.978699%, 14.118958%)" d="M 172.363281 49.011719 L 172.363281 73.515625 L 196.832031 73.515625 L 196.832031 49.011719 L 172.363281 49.011719 " fill-opacity="1" fill-rule="nonzero"/><path fill="rgb(94.509888%, 27.059937%, 15.689087%)" d="M 319.246094 24.53125 L 319.246094 49.011719 L 343.738281 49.011719 L 343.738281 24.53125 L 319.246094 24.53125 " fill-opacity="1" fill-rule="nonzero"/><path fill="rgb(100%, 100%, 100%)" d="M 294.78125 24.53125 L 294.78125 49.011719 L 319.289062 49.011719 L 319.289062 24.53125 L 294.78125 24.53125 " fill-opacity="1" fill-rule="nonzero"/><path fill="rgb(92.939758%, 10.978699%, 14.118958%)" d="M 270.238281 24.53125 L 270.238281 49.011719 L 294.734375 49.011719 L 294.734375 24.53125 L 270.238281 24.53125 " fill-opacity="1" fill-rule="nonzero"/><path fill="rgb(92.939758%, 10.978699%, 14.118958%)" d="M 245.789062 24.53125 L 245.789062 49.011719 L 270.273438 49.011719 L 270.273438 24.53125 L 245.789062 24.53125 " fill-opacity="1" fill-rule="nonzero"/><path fill="rgb(92.939758%, 10.978699%, 14.118958%)" d="M 221.28125 24.53125 L 221.28125 49.011719 L 245.777344 49.011719 L 245.777344 24.53125 L 221.28125 24.53125 " fill-opacity="1" fill-rule="nonzero"/><path fill="rgb(92.939758%, 10.978699%, 14.118958%)" d="M 196.824219 24.53125 L 196.824219 49.011719 L 221.320312 49.011719 L 221.320312 24.53125 L 196.824219 24.53125 " fill-opacity="1" fill-rule="nonzero"/><path fill="rgb(94.509888%, 27.059937%, 15.689087%)" d="M 294.78125 0.0351562 L 294.78125 24.53125 L 319.289062 24.53125 L 319.289062 0.0351562 L 294.78125 0.0351562 " fill-opacity="1" fill-rule="nonzero"/><path fill="rgb(94.509888%, 27.059937%, 15.689087%)" d="M 270.238281 0.0351562 L 270.238281 24.53125 L 294.734375 24.53125 L 294.734375 0.0351562 L 270.238281 0.0351562 " fill-opacity="1" fill-rule="nonzero"/><path fill="rgb(92.939758%, 10.978699%, 14.118958%)" d="M 245.789062 0.0351562 L 245.789062 24.53125 L 270.273438 24.53125 L 270.273438 0.0351562 L 245.789062 0.0351562 " fill-opacity="1" fill-rule="nonzero"/><path fill="rgb(92.939758%, 10.978699%, 14.118958%)" d="M 221.28125 0.0351562 L 221.28125 24.53125 L 245.777344 24.53125 L 245.777344 0.0351562 L 221.28125 0.0351562 " fill-opacity="1" fill-rule="nonzero"/><path fill="rgb(92.939758%, 10.978699%, 14.118958%)" d="M 196.824219 0.0351562 L 196.824219 24.53125 L 221.320312 24.53125 L 221.320312 0.0351562 L 196.824219 0.0351562 " fill-opacity="1" fill-rule="nonzero"/><path fill="rgb(92.939758%, 10.978699%, 14.118958%)" d="M 172.449219 24.53125 L 172.449219 49.011719 L 196.953125 49.011719 L 196.953125 24.53125 L 172.449219 24.53125 " fill-opacity="1" fill-rule="nonzero"/><path fill="rgb(92.939758%, 10.978699%, 14.118958%)" d="M 147.90625 49.011719 L 147.90625 73.515625 L 172.394531 73.515625 L 172.394531 49.011719 L 147.90625 49.011719 " fill-opacity="1" fill-rule="nonzero"/><path fill="rgb(92.939758%, 10.978699%, 14.118958%)" d="M 123.40625 73.515625 L 123.40625 98.003906 L 147.90625 98.003906 L 147.90625 73.515625 L 123.40625 73.515625 " fill-opacity="1" fill-rule="nonzero"/><path fill="rgb(92.939758%, 10.978699%, 14.118958%)" d="M 98.871094 98.003906 L 98.871094 122.492188 L 123.359375 122.492188 L 123.359375 98.003906 L 98.871094 98.003906 " fill-opacity="1" fill-rule="nonzero"/><path fill="rgb(92.939758%, 10.978699%, 14.118958%)" d="M 74.441406 122.433594 L 74.441406 146.929688 L 98.921875 146.929688 L 98.921875 122.433594 L 74.441406 122.433594 " fill-opacity="1" fill-rule="nonzero"/><path fill="rgb(71.369934%, 7.839966%, 10.198975%)" d="M 74.441406 146.988281 L 74.441406 171.472656 L 98.921875 171.472656 L 98.921875 146.988281 L 74.441406 146.988281 " fill-opacity="1" fill-rule="nonzero"/><g clip-path="url(#id7)"><path fill="rgb(71.369934%, 7.839966%, 10.198975%)" d="M 49.9375 146.988281 L 49.9375 171.472656 L 74.441406 171.472656 L 74.441406 146.988281 L 49.9375 146.988281 " fill-opacity="1" fill-rule="nonzero"/></g><path fill="rgb(71.369934%, 7.839966%, 10.198975%)" d="M 98.871094 171.417969 L 98.871094 195.898438 L 123.359375 195.898438 L 123.359375 171.417969 L 98.871094 171.417969 " fill-opacity="1" fill-rule="nonzero"/><path fill="rgb(71.369934%, 7.839966%, 10.198975%)" d="M 98.871094 195.898438 L 98.871094 220.402344 L 123.359375 220.402344 L 123.359375 195.898438 L 98.871094 195.898438 " fill-opacity="1" fill-rule="nonzero"/><path fill="rgb(71.369934%, 7.839966%, 10.198975%)" d="M 74.203125 171.417969 L 74.203125 195.898438 L 98.703125 195.898438 L 98.703125 171.417969 L 74.203125 171.417969 " fill-opacity="1" fill-rule="nonzero"/><g fill="rgb(100%, 0%, 100%)" fill-opacity="1"><g transform="translate(221.133456, 534.740619)"><g><path d="M 15.148438 -10.691406 L 15.148438 -62.378906 L 4.457031 -62.378906 L 4.457031 -10.691406 L 15.148438 -10.691406 L 15.148438 0 L 36.535156 0 L 36.535156 -10.691406 Z M 36.535156 -62.378906 L 36.535156 -10.691406 L 47.230469 -10.691406 L 47.230469 -62.378906 Z M 36.535156 -62.378906 "/></g></g></g><g fill="rgb(100%, 0%, 100%)" fill-opacity="1"><g transform="translate(282.261612, 534.740619)"><g><path d="M 4.457031 -62.378906 L 4.457031 0 L 15.148438 0 L 15.148438 -40.992188 L 25.84375 -40.992188 L 25.84375 -30.296875 L 36.535156 -30.296875 L 36.535156 -19.605469 L 47.230469 -19.605469 L 47.230469 0 L 57.921875 0 L 57.921875 -62.378906 L 47.230469 -62.378906 L 47.230469 -30.296875 L 36.535156 -30.296875 L 36.535156 -40.992188 L 25.84375 -40.992188 L 25.84375 -51.683594 L 15.148438 -51.683594 L 15.148438 -62.378906 Z M 4.457031 -62.378906 "/></g></g></g><g fill="rgb(100%, 0%, 100%)" fill-opacity="1"><g transform="translate(354.08258, 534.740619)"><g><path d="M 15.148438 -25.84375 L 36.535156 -25.84375 L 36.535156 -10.691406 L 47.230469 -10.691406 L 47.230469 -25.84375 L 36.535156 -25.84375 L 36.535156 -36.535156 L 15.148438 -36.535156 L 15.148438 -51.683594 L 36.535156 -51.683594 L 36.535156 -36.535156 L 47.230469 -36.535156 L 47.230469 -51.683594 L 36.535156 -51.683594 L 36.535156 -62.378906 L 4.457031 -62.378906 L 4.457031 0 L 36.535156 0 L 36.535156 -10.691406 L 15.148438 -10.691406 Z M 15.148438 -25.84375 "/></g></g></g><g fill="rgb(0%, 100%, 100%)" fill-opacity="1"><g transform="translate(227.834706, 536.411427)"><g><path d="M 15.148438 -10.691406 L 15.148438 -62.378906 L 4.457031 -62.378906 L 4.457031 -10.691406 L 15.148438 -10.691406 L 15.148438 0 L 36.535156 0 L 36.535156 -10.691406 Z M 36.535156 -62.378906 L 36.535156 -10.691406 L 47.230469 -10.691406 L 47.230469 -62.378906 Z M 36.535156 -62.378906 "/></g></g></g><g fill="rgb(0%, 100%, 100%)" fill-opacity="1"><g transform="translate(288.962861, 536.411427)"><g><path d="M 4.457031 -62.378906 L 4.457031 0 L 15.148438 0 L 15.148438 -40.992188 L 25.84375 -40.992188 L 25.84375 -30.296875 L 36.535156 -30.296875 L 36.535156 -19.605469 L 47.230469 -19.605469 L 47.230469 0 L 57.921875 0 L 57.921875 -62.378906 L 47.230469 -62.378906 L 47.230469 -30.296875 L 36.535156 -30.296875 L 36.535156 -40.992188 L 25.84375 -40.992188 L 25.84375 -51.683594 L 15.148438 -51.683594 L 15.148438 -62.378906 Z M 4.457031 -62.378906 "/></g></g></g><g fill="rgb(0%, 100%, 100%)" fill-opacity="1"><g transform="translate(360.78383, 536.411427)"><g><path d="M 15.148438 -25.84375 L 36.535156 -25.84375 L 36.535156 -10.691406 L 47.230469 -10.691406 L 47.230469 -25.84375 L 36.535156 -25.84375 L 36.535156 -36.535156 L 15.148438 -36.535156 L 15.148438 -51.683594 L 36.535156 -51.683594 L 36.535156 -36.535156 L 47.230469 -36.535156 L 47.230469 -51.683594 L 36.535156 -51.683594 L 36.535156 -62.378906 L 4.457031 -62.378906 L 4.457031 0 L 36.535156 0 L 36.535156 -10.691406 L 15.148438 -10.691406 Z M 15.148438 -25.84375 "/></g></g></g><g fill="rgb(0%, 29.019165%, 67.83905%)" fill-opacity="1"><g transform="translate(224.484081, 535.576035)"><g><path d="M 15.148438 -10.691406 L 15.148438 -62.378906 L 4.457031 -62.378906 L 4.457031 -10.691406 L 15.148438 -10.691406 L 15.148438 0 L 36.535156 0 L 36.535156 -10.691406 Z M 36.535156 -62.378906 L 36.535156 -10.691406 L 47.230469 -10.691406 L 47.230469 -62.378906 Z M 36.535156 -62.378906 "/></g></g></g><g fill="rgb(0%, 29.019165%, 67.83905%)" fill-opacity="1"><g transform="translate(285.612236, 535.576035)"><g><path d="M 4.457031 -62.378906 L 4.457031 0 L 15.148438 0 L 15.148438 -40.992188 L 25.84375 -40.992188 L 25.84375 -30.296875 L 36.535156 -30.296875 L 36.535156 -19.605469 L 47.230469 -19.605469 L 47.230469 0 L 57.921875 0 L 57.921875 -62.378906 L 47.230469 -62.378906 L 47.230469 -30.296875 L 36.535156 -30.296875 L 36.535156 -40.992188 L 25.84375 -40.992188 L 25.84375 -51.683594 L 15.148438 -51.683594 L 15.148438 -62.378906 Z M 4.457031 -62.378906 "/></g></g></g><g fill="rgb(0%, 29.019165%, 67.83905%)" fill-opacity="1"><g transform="translate(357.433205, 535.576035)"><g><path d="M 15.148438 -25.84375 L 36.535156 -25.84375 L 36.535156 -10.691406 L 47.230469 -10.691406 L 47.230469 -25.84375 L 36.535156 -25.84375 L 36.535156 -36.535156 L 15.148438 -36.535156 L 15.148438 -51.683594 L 36.535156 -51.683594 L 36.535156 -36.535156 L 47.230469 -36.535156 L 47.230469 -51.683594 L 36.535156 -51.683594 L 36.535156 -62.378906 L 4.457031 -62.378906 L 4.457031 0 L 36.535156 0 L 36.535156 -10.691406 L 15.148438 -10.691406 Z M 15.148438 -25.84375 "/></g></g></g></svg>